<?xml version="1.0" encoding="UTF-8"?>
<svg version="1.1" xmlns="http://www.w3.org/2000/svg" width="800" height="533">
<path d="M0 0 C264 0 528 0 800 0 C800 175.89 800 351.78 800 533 C536 533 272 533 0 533 C0 357.11 0 181.22 0 0 Z " fill="#3DD9DE" transform="translate(0,0)"/>
<path d="M0 0 C143.88 0 287.76 0 436 0 C434.87381974 11.26180258 434.87381974 11.26180258 434.23828125 15.6953125 C434.01954346 17.22792725 434.01954346 17.22792725 433.79638672 18.79150391 C433.55686279 20.44158447 433.55686279 20.44158447 433.3125 22.125 C433.13734863 23.33978027 432.96219727 24.55456055 432.78173828 25.80615234 C429.61727785 47.64665316 426.30009283 69.46486733 422.98019218 91.28216743 C422.13570492 96.83259178 421.29208853 102.38314854 420.44856644 107.93371964 C420.12565996 110.05815808 419.80256284 112.18256748 419.47946167 114.30697632 C417.14617496 129.65397647 414.83757919 145.00397323 412.61328125 160.3671875 C412.42691101 161.65404953 412.24054077 162.94091156 412.04852295 164.26676941 C411.1683751 170.35489749 410.29341651 176.44373259 409.42431641 182.53344727 C409.26690475 183.62936188 409.1094931 184.72527649 408.9473114 185.85440063 C408.65508047 187.88911692 408.36507084 189.92415399 408.07771301 191.95956421 C407.94950668 192.85003448 407.82130035 193.74050476 407.68920898 194.65795898 C407.5794725 195.42929672 407.46973602 196.20063446 407.35667419 196.99534607 C407 199 407 199 406 202 C405.11699219 202.09796875 404.23398437 202.1959375 403.32421875 202.296875 C385.77422918 204.48355469 370.38509836 210.96987879 359 225 C349.48869991 238.8884728 345.91723892 252.32803706 347 269 C347.05929687 269.97839844 347.11859375 270.95679688 347.1796875 271.96484375 C348.78748115 285.00365809 356.66236892 297.15106736 366 306 C366.53496094 306.51949219 367.06992187 307.03898437 367.62109375 307.57421875 C371.33517044 310.9259465 375.50666402 312.90827463 380 315 C379.34 317.64 378.68 320.28 378 323 C379.485 319.535 379.485 319.535 381 316 C384.465 317.485 384.465 317.485 388 319 C388.08904946 324.2578865 387.82366925 329.17553831 387.04125977 334.39160156 C386.93847812 335.0877315 386.83569647 335.78386145 386.72980022 336.50108624 C386.38918359 338.79845943 386.04033286 341.0945005 385.69140625 343.390625 C385.44657904 345.03040688 385.20226732 346.6702658 384.95843506 348.31019592 C384.3027627 352.71016393 383.63996425 357.10903118 382.97580338 361.50772476 C382.28134878 366.11544337 381.59353733 370.72415345 380.9050293 375.33276367 C379.66045981 383.65706867 378.41041177 391.98053906 377.15768719 400.30362034 C375.93911334 408.400953 374.72667061 416.49919479 373.515625 424.59765625 C371.89757725 435.41268935 370.27359021 446.22681774 368.6466217 457.04051208 C367.35985303 465.5968317 366.07893322 474.15401417 364.80028343 482.71154976 C364.17183575 486.91675399 363.54273726 491.12186092 362.91366673 495.32697201 C362.41037574 498.69173473 361.9075199 502.0565613 361.40567017 505.42153931 C360.85488791 509.11322407 360.30260744 512.80468183 359.75 516.49609375 C359.58690842 517.59196808 359.42381683 518.68784241 359.25578308 519.81692505 C359.02862358 521.3315181 359.02862358 521.3315181 358.796875 522.87670898 C358.66635742 523.75052719 358.53583984 524.6243454 358.40136719 525.52464294 C357.99559748 528.02715172 357.49719209 530.51403957 357 533 C239.19 533 121.38 533 0 533 C0 357.11 0 181.22 0 0 Z " fill="#01EFB6" transform="translate(0,0)"/>
<path d="M0 0 C3.38257277 0.28576908 4.67862943 0.6413049 6.984375 3.21484375 C7.56703125 4.11332031 8.1496875 5.01179687 8.75 5.9375 C9.34296875 6.83339844 9.9359375 7.72929687 10.546875 8.65234375 C12 11 12 11 13 13 C16.28265165 12.68655236 17.69591305 12.30466288 20.0625 9.93359375 C21.35542843 8.26790571 22.64709337 6.60123619 23.9375 4.93359375 C26 3 26 3 28.65234375 2.60546875 C31 3 31 3 32.5625 4.875 C34.54534855 9.18554033 36.30509857 13.56916631 38 18 C42.72640157 17.23591661 45.78413129 14.27701633 49.46484375 11.3984375 C52 10 52 10 57 11 C58.98 18.92 58.98 18.92 61 27 C64.89139567 27 66.11872127 26.65651347 69.4375 25 C72.76139576 23.45832466 75.27316537 22.3223937 79 23 C81.93447357 25.93447357 81.46158423 29.18259456 81.625 33.125 C81.66367187 33.87910156 81.70234375 34.63320312 81.7421875 35.41015625 C81.83651031 37.27303184 81.91934662 39.13648255 82 41 C83.9490625 40.7525 83.9490625 40.7525 85.9375 40.5 C90.60658489 39.98203496 95.30578854 39.64374288 100 40 C101 41 101 41 101.1875 43.9375 C101.15315648 48.06730879 100.26674111 51.95044045 99.33984375 55.9609375 C99.22769531 56.63382813 99.11554688 57.30671875 99 58 C101.22264917 60.22264917 107.03545573 59.4053681 110.18554688 59.51757812 C115.78671875 59.78671875 115.78671875 59.78671875 118 62 C117.76354015 66.84742688 115.87767169 70.6856141 113.7421875 74.94921875 C112.70569755 77.15075107 112.70569755 77.15075107 114 80 C117.18916319 80.96344916 117.18916319 80.96344916 120.9375 81.5625 C127.79776675 82.79776675 127.79776675 82.79776675 130 85 C130.47687172 88.21486554 130.28997219 89.57769635 128.43359375 92.28125 C127.10169906 93.7617122 125.76836195 95.240878 124.43359375 96.71875 C122.78765952 98.92224773 122.78765952 98.92224773 122.87890625 101.625 C123.83568364 104.29595722 123.83568364 104.29595722 126.90625 105.40625 C128.0921875 105.7671875 129.278125 106.128125 130.5 106.5 C134.09375 107.59375 134.09375 107.59375 137 109 C138.21484375 111.33984375 138.21484375 111.33984375 138 114 C135.91015625 116.53515625 135.91015625 116.53515625 133.0625 119.0625 C130.2466184 121.4952018 130.2466184 121.4952018 128 124 C128 125.32 128 126.64 128 128 C130.36643937 129.96545757 130.36643937 129.96545757 133.375 131.625 C138.88607595 134.88607595 138.88607595 134.88607595 141 137 C141.00390625 138.859375 141.00390625 138.859375 140 141 C137.27734375 143.140625 137.27734375 143.140625 133.9375 145.25 C132.83277344 145.95640625 131.72804688 146.6628125 130.58984375 147.390625 C129.73519531 147.92171875 128.88054687 148.4528125 128 149 C128.31344764 152.28265165 128.69533712 153.69591305 131.06640625 156.0625 C132.73209429 157.35542843 134.39876381 158.64709337 136.06640625 159.9375 C138 162 138 162 138.27734375 164.75 C138.18582031 165.4925 138.09429687 166.235 138 167 C132.73677223 169.45855991 127.63308675 171.56176509 122 173 C123.5424564 176.97791388 125.0725041 180.24482064 127.6875 183.625 C129.4155155 185.94116535 129.98064057 186.87554654 130.4375 189.8125 C130 192 130 192 128 194 C125.44132526 194.4657363 122.95312092 194.83484248 120.375 195.125 C119.66859375 195.21136719 118.9621875 195.29773438 118.234375 195.38671875 C116.49049859 195.59881183 114.7453516 195.80040991 113 196 C113.53075464 199.92419651 114.32394245 203.04225116 116.125 206.5625 C117.48990908 209.48448948 118.01748217 210.72028525 117.8125 214 C117 216 117 216 116 217 C113.13732433 217.07325168 110.299281 217.09238205 107.4375 217.0625 C106.63119141 217.05798828 105.82488281 217.05347656 104.99414062 217.04882812 C102.99606244 217.03700518 100.99802217 217.01906914 99 217 C99.2165625 218.051875 99.2165625 218.051875 99.4375 219.125 C100.55885368 224.85636326 101.32447689 230.15941607 101 236 C100.67 236.33 100.34 236.66 100 237 C98.10116136 236.93503196 96.20462795 236.79722321 94.3125 236.625 C92.75982422 236.48964844 92.75982422 236.48964844 91.17578125 236.3515625 C88.09121804 236.01009794 85.05536922 235.54053009 82 235 C81.92652344 236.80597656 81.92652344 236.80597656 81.8515625 238.6484375 C81.77653657 240.22398198 81.70098867 241.79950166 81.625 243.375 C81.5940625 244.1690625 81.563125 244.963125 81.53125 245.78125 C81.2265625 251.7734375 81.2265625 251.7734375 79 254 C74.20498406 253.76609678 70.38090058 251.92637379 66.1484375 249.83984375 C63.7635475 248.75727995 63.7635475 248.75727995 60 249 C59.855625 250.175625 59.71125 251.35125 59.5625 252.5625 C59.4696875 253.28824219 59.376875 254.01398438 59.28125 254.76171875 C59.02544423 256.79750634 58.79269191 258.83615734 58.5625 260.875 C58 264 58 264 56 266 C52.76298852 266.47651438 51.30340178 266.17904912 48.46484375 264.50390625 C47.63082031 263.86324219 46.79679688 263.22257812 45.9375 262.5625 C42.96352393 260.29421316 40.72847263 258.61136618 37 258 C36.72736328 258.97839844 36.72736328 258.97839844 36.44921875 259.9765625 C35.02533404 264.92730011 33.50592766 269.46546423 31 274 C28.78515625 274.3125 28.78515625 274.3125 26 274 C23.68359375 271.8125 23.68359375 271.8125 21.4375 269 C19.28582809 266.2106552 19.28582809 266.2106552 17 264 C15.68 264 14.36 264 13 264 C10.99999257 266.39938247 10.99999257 266.39938247 9.3125 269.4375 C8.40951172 270.95150391 8.40951172 270.95150391 7.48828125 272.49609375 C6.99714844 273.32238281 6.50601563 274.14867187 6 275 C5 276 5 276 2.671875 276.3671875 C0 276 0 276 -1.984375 273.8828125 C-2.56703125 272.97273438 -3.1496875 272.06265625 -3.75 271.125 C-4.34296875 270.22007812 -4.9359375 269.31515625 -5.546875 268.3828125 C-7 266 -7 266 -8 264 C-13.83731537 264.55495604 -16.03655911 267.95028772 -19.71875 272.1640625 C-22 274 -22 274 -24.57421875 274.21484375 C-28.16102988 272.41855025 -28.98797708 269.51266346 -30.3125 265.9375 C-30.70791992 264.94266602 -30.70791992 264.94266602 -31.11132812 263.92773438 C-31.75854732 262.29203495 -32.38164295 260.6468272 -33 259 C-37.88465538 259.66994405 -40.2790207 261.58787056 -43.9375 264.72265625 C-46.50510998 266.3128238 -48.02959121 266.38595772 -51 266 C-53.81197457 263.18802543 -53.69902557 260.15988755 -54.125 256.375 C-54.21136719 255.66859375 -54.29773438 254.9621875 -54.38671875 254.234375 C-54.59881183 252.49049859 -54.80040991 250.7453516 -55 249 C-59.17766411 249.47313304 -62.50369459 249.95827751 -66.125 252.125 C-68.86430694 253.5983748 -69.73688804 254.01679438 -72.9375 253.8125 C-75 253 -75 253 -76 252 C-76.15582303 250.65984779 -76.25044142 249.31241097 -76.31640625 247.96484375 C-76.35830078 247.15595703 -76.40019531 246.34707031 -76.44335938 245.51367188 C-76.48267578 244.66353516 -76.52199219 243.81339844 -76.5625 242.9375 C-76.60568359 242.08349609 -76.64886719 241.22949219 -76.69335938 240.34960938 C-76.79976702 238.23327963 -76.90041731 236.11666187 -77 234 C-77.71285156 234.2165625 -78.42570312 234.433125 -79.16015625 234.65625 C-84.59434787 236.23604191 -89.33426844 237.49267231 -95 237 C-96 236 -96 236 -96.125 232.6875 C-96.02587301 229.76325383 -95.69008822 227.76035288 -95 225 C-94.9798858 222.66675336 -94.97839599 220.33323332 -95 218 C-96.69769531 217.92652344 -96.69769531 217.92652344 -98.4296875 217.8515625 C-99.91148339 217.77653486 -101.393253 217.70098703 -102.875 217.625 C-103.62136719 217.5940625 -104.36773437 217.563125 -105.13671875 217.53125 C-110.7734375 217.2265625 -110.7734375 217.2265625 -113 215 C-112.7955912 209.8897801 -111.32723144 206.24082077 -108.83984375 201.89453125 C-107.72982412 199.7359232 -107.72982412 199.7359232 -108 196 C-109.05960938 195.87882813 -110.11921875 195.75765625 -111.2109375 195.6328125 C-112.59901324 195.46399248 -113.98703119 195.29469692 -115.375 195.125 C-116.07367188 195.04636719 -116.77234375 194.96773437 -117.4921875 194.88671875 C-122.7734375 194.2265625 -122.7734375 194.2265625 -125 192 C-125 186.16854086 -123.04446551 183.24666486 -119.27734375 178.89453125 C-117.62731177 176.82805597 -117.62731177 176.82805597 -118 173 C-118.66386719 172.81824219 -119.32773438 172.63648438 -120.01171875 172.44921875 C-129.98996656 169.60869565 -129.98996656 169.60869565 -133 167 C-133.4296875 164.68359375 -133.4296875 164.68359375 -133 162 C-130.8125 159.68359375 -130.8125 159.68359375 -128 157.4375 C-125.2106552 155.28582809 -125.2106552 155.28582809 -123 153 C-123 151.68 -123 150.36 -123 149 C-125.36643937 147.03454243 -125.36643937 147.03454243 -128.375 145.375 C-133.88607595 142.11392405 -133.88607595 142.11392405 -136 140 C-135.96484375 137.61328125 -135.96484375 137.61328125 -135 135 C-132.56640625 132.98046875 -132.56640625 132.98046875 -129.5625 131.1875 C-128.57378906 130.58292969 -127.58507812 129.97835937 -126.56640625 129.35546875 C-124 128 -124 128 -122 128 C-122.993126 123.90335525 -124.88997853 122.11640816 -128.0625 119.5625 C-131.04019368 117.10711426 -131.88766289 116.3861588 -133 112.5625 C-133 111.716875 -133 110.87125 -133 110 C-130.03653214 107.52813545 -127.45958311 106.33751639 -123.75 105.3125 C-122.85796875 105.06113281 -121.9659375 104.80976563 -121.046875 104.55078125 C-120.37140625 104.36902344 -119.6959375 104.18726563 -119 104 C-118.13149826 101.75124253 -118.13149826 101.75124253 -118 99 C-119.66369252 96.39859044 -119.66369252 96.39859044 -122 94 C-124.3125 91.5 -124.3125 91.5 -126 89 C-125.70731707 84.70731707 -125.70731707 84.70731707 -124 83 C-121.48140772 82.4380482 -118.97126697 81.92023227 -116.4375 81.4375 C-115.72658203 81.29892578 -115.01566406 81.16035156 -114.28320312 81.01757812 C-112.52280068 80.67494946 -110.76148203 80.33703447 -109 80 C-107.65625222 77.06100578 -107.65625222 77.06100578 -109.03125 74.51171875 C-110.00722008 72.63505288 -110.98636862 70.76003644 -111.96875 68.88671875 C-113 66 -113 66 -112 60 C-103.585 59.505 -103.585 59.505 -95 59 C-93.8238863 55.4716589 -94.55911976 53.63313318 -95.515625 50.13671875 C-96.21409951 47.05554492 -96.19224396 44.13998465 -96 41 C-94.11940967 39.11940967 -91.50109962 39.87638782 -89.0078125 39.8671875 C-87 40 -87 40 -84 41 C-81.66700175 41.03954234 -79.33291811 41.04401732 -77 41 C-76.90912109 39.30230469 -76.90912109 39.30230469 -76.81640625 37.5703125 C-76.73200083 36.08852855 -76.64735283 34.6067584 -76.5625 33.125 C-76.52318359 32.37863281 -76.48386719 31.63226563 -76.44335938 30.86328125 C-76.11328125 25.2265625 -76.11328125 25.2265625 -75 23 C-69.69402872 23.45157202 -65.76564074 24.84958774 -61.015625 27.2578125 C-58.84503397 28.29531953 -58.84503397 28.29531953 -56 27 C-55.03555384 23.84518565 -55.03555384 23.84518565 -54.4375 20.125 C-53.19618913 13.2942837 -53.19618913 13.2942837 -51 10 C-45.65948228 10.67831263 -42.58162843 13.30343708 -38.40234375 16.50390625 C-35.90578575 18.35242235 -35.90578575 18.35242235 -32 18 C-31.81824219 17.33613281 -31.63648438 16.67226562 -31.44921875 15.98828125 C-28.60869565 6.01003344 -28.60869565 6.01003344 -26 3 C-23.68359375 2.5703125 -23.68359375 2.5703125 -21 3 C-18.68359375 5.1875 -18.68359375 5.1875 -16.4375 8 C-14.28582809 10.7893448 -14.28582809 10.7893448 -12 13 C-10.68 13 -9.36 13 -8 13 C-6.37227202 10.83761684 -5.06336197 8.83973003 -3.75 6.5 C-3.38648438 5.87996094 -3.02296875 5.25992188 -2.6484375 4.62109375 C-1.75239409 3.08838792 -0.87444253 1.54513146 0 0 Z " fill="#000302" transform="translate(175,128)"/>
<path d="M0 0 C3.63308096 1.85113453 7.16576498 3.86036142 10.69702148 5.89770508 C12.09960205 6.6943457 12.09960205 6.6943457 13.53051758 7.50708008 C20.13939262 11.26123395 26.71302927 15.07368095 33.27709961 18.90551758 C38.78012261 22.11116204 44.30229693 25.28343891 49.82202148 28.46020508 C59.39048011 33.97552872 68.94479018 39.51481566 78.46704102 45.10961914 C82.62197031 47.54678615 86.7742255 49.96715627 91.02514648 52.23364258 C99.85849793 56.96090559 107.08284976 62.1644643 111.05783463 71.69487381 C112.38569329 76.27107643 112.11127052 81.02094986 112.08520508 85.7487793 C112.09309052 87.51353104 112.09309052 87.51353104 112.10113525 89.31393433 C112.11431212 93.19355646 112.10560376 97.07276644 112.09545898 100.95239258 C112.0961277 103.65610077 112.10038864 106.35980169 112.10415649 109.06350708 C112.10960563 114.72752317 112.10244624 120.3914217 112.08813477 126.05541992 C112.07182555 132.58507095 112.07708741 139.11444065 112.09361398 145.64408481 C112.10727186 151.26727434 112.10912712 156.89037966 112.10129797 162.51358044 C112.09664291 165.86452597 112.09712978 169.21523447 112.10590744 172.56618881 C112.11355479 176.30693106 112.10187001 180.04713916 112.08520508 183.7878418 C112.09127777 184.8852771 112.09735046 185.9827124 112.10360718 187.11340332 C112.02178171 197.06445193 110.12516313 204.43490654 103.17749023 211.73217773 C98.50122029 215.81470868 93.1357601 218.65467263 87.69702148 221.58520508 C86.44594297 222.27661651 85.19595966 222.970013 83.94702148 223.6652832 C81.41121123 225.07605947 78.87179377 226.4799774 76.32983398 227.87963867 C71.06381096 230.79116845 65.88180256 233.8445572 60.69702148 236.89770508 C50.82200314 242.68194014 40.9011481 248.38360598 30.95629883 254.04663086 C25.44938762 257.18254275 19.94748986 260.32590445 14.46655273 263.50708008 C13.50837646 264.06121582 12.5502002 264.61535156 11.56298828 265.1862793 C9.79498469 266.20957023 8.02933405 267.23694258 6.26660156 268.26928711 C-1.80901924 272.93114162 -8.88703138 275.39178801 -18.30297852 273.89770508 C-23.96144368 271.81130754 -29.07979214 268.89038912 -34.30297852 265.89770508 C-35.25011719 265.36129395 -36.19725586 264.82488281 -37.1730957 264.2722168 C-44.92018091 259.87730638 -52.61649531 255.39754977 -60.30297852 250.89770508 C-64.36511527 248.52208328 -68.42765668 246.14715504 -72.49047852 243.77270508 C-73.46960205 243.19987793 -74.44872559 242.62705078 -75.45751953 242.03686523 C-82.35109639 238.01224208 -89.28506241 234.06431351 -96.24047852 230.14770508 C-98.13639669 229.07493835 -100.0322321 228.00202531 -101.92797852 226.92895508 C-105.35405848 224.9907727 -108.79167786 223.0763535 -112.24047852 221.17895508 C-122.13332429 215.66394772 -130.58405945 210.48319022 -134.66008377 199.3242321 C-135.90571032 194.62276814 -135.71813111 189.85912877 -135.69116211 185.02490234 C-135.69641907 183.85800873 -135.70167603 182.69111511 -135.70709229 181.48886108 C-135.72025205 177.64714003 -135.71156744 173.80583631 -135.70141602 169.96411133 C-135.70343803 167.28425079 -135.70634641 164.60440271 -135.71011353 161.92454529 C-135.71555938 156.31358354 -135.70841116 150.70274056 -135.6940918 145.09179688 C-135.67777541 138.62404017 -135.68305099 132.15656737 -135.69957101 125.68881756 C-135.71322895 120.11656264 -135.71508436 114.5443927 -135.70725501 108.97212642 C-135.70260101 105.65251603 -135.70308497 102.33306669 -135.71186447 99.01346016 C-135.71951216 95.3087478 -135.70782696 91.60457471 -135.69116211 87.89990234 C-135.6972348 86.81338882 -135.7033075 85.72687531 -135.70956421 84.60743713 C-135.62665949 74.62176152 -133.67552724 67.33960081 -126.7121582 60.02758789 C-122.37771247 56.19563566 -117.49338112 53.52153834 -112.42797852 50.77270508 C-110.69115541 49.8009112 -108.9543468 48.82909019 -107.21844482 47.85565186 C-105.4294422 46.85509179 -103.63656811 45.86176526 -101.84301758 44.86938477 C-96.28713339 41.78641001 -90.79937146 38.58508621 -85.30297852 35.39770508 C-83.14050823 34.14980634 -80.97774686 32.9024119 -78.81469727 31.65551758 C-74.44070106 29.13223524 -70.06849318 26.60589 -65.69750977 24.07739258 C-54.98071962 17.88027496 -44.25323117 11.70222083 -33.49047852 5.58520508 C-32.53568604 5.03977051 -31.58089355 4.49433594 -30.59716797 3.93237305 C-29.70989014 3.4297998 -28.8226123 2.92722656 -27.90844727 2.40942383 C-27.13654053 1.97073975 -26.36463379 1.53205566 -25.56933594 1.08007812 C-17.20046772 -3.28601353 -8.7527001 -4.06303714 0 0 Z " fill="#000101" transform="translate(641.302978515625,130.102294921875)"/>
<path d="M0 0 C8.03421909 6.55097864 13.89785615 15.68499587 17.71875 25.28125 C17.71875 26.27125 17.71875 27.26125 17.71875 28.28125 C17.03361328 28.59352539 16.34847656 28.90580078 15.64257812 29.22753906 C12.50062023 30.66061979 9.35968005 32.09591801 6.21875 33.53125 C5.14109375 34.02238281 4.0634375 34.51351562 2.953125 35.01953125 C1.89609375 35.50292969 0.8390625 35.98632812 -0.25 36.484375 C-1.28382813 36.95681641 -2.31765625 37.42925781 -3.3828125 37.91601562 C-5.92303709 39.11252303 -8.39691382 40.38465607 -10.875 41.703125 C-14.28125 43.28125 -14.28125 43.28125 -17.28125 42.28125 C-18.859375 39.98828125 -18.859375 39.98828125 -20.53125 37.09375 C-26.35053221 27.71486511 -32.77899126 23.79065452 -43.29296875 20.6875 C-53.26967453 18.64903752 -63.50724576 20.82545016 -72.17578125 25.8671875 C-81.04959408 31.82696532 -87.72355187 41.47097337 -89.83984375 52.08203125 C-91.86947398 66.79236007 -88.94097013 79.60751815 -80.03125 91.65625 C-72.00013457 99.32231473 -62.90160561 102.68026921 -51.90625 102.59375 C-51.15601563 102.58811035 -50.40578125 102.5824707 -49.6328125 102.57666016 C-44.06059866 102.45452613 -39.28884059 101.88400954 -34.28125 99.28125 C-33.52585937 98.89066406 -32.77046875 98.50007813 -31.9921875 98.09765625 C-24.49623882 93.67279022 -19.98203821 87.0403905 -16.28125 79.28125 C-9.92793384 81.29012064 -3.95943512 84.03563824 2.0793457 86.8215332 C4.03881053 87.72222529 6.00456015 88.60813995 7.97070312 89.49414062 C9.21655989 90.0668084 10.46201755 90.64034542 11.70703125 91.21484375 C12.83665283 91.73103271 13.96627441 92.24722168 15.13012695 92.77905273 C17.71875 94.28125 17.71875 94.28125 18.71875 97.28125 C11.19901584 115.79136485 -2.96257945 127.86103817 -20.7578125 136.02734375 C-31.12900236 139.71819956 -40.66520808 140.77801542 -51.65625 140.71875 C-52.96335937 140.73873047 -54.27046875 140.75871094 -55.6171875 140.77929688 C-67.68451554 140.7733111 -78.74703341 138.17030384 -89.46875 132.59375 C-90.13527588 132.25126221 -90.80180176 131.90877441 -91.48852539 131.5559082 C-110.36456048 121.50520953 -122.19187814 104.17420889 -128.69433594 84.23144531 C-134.90292361 63.60157913 -131.22174095 42.20380515 -121.7890625 23.2890625 C-111.47265673 4.28515713 -94.26392519 -7.98854435 -74.09375 -15.15625 C-48.20462249 -22.00320427 -20.9598114 -15.79163873 0 0 Z " fill="#3DD8DD" transform="translate(675.28125,203.71875)"/>
<path d="M0 0 C1.50705078 4.52115235 -0.64834833 8.17298003 -2.26171875 12.46289062 C-3.25140205 15.22142778 -4.04892009 17.46100546 -3.78125 20.41015625 C-3.09970716 22.20244153 -3.09970716 22.20244153 -1 23 C-0.67 21.35 -0.34 19.7 0 18 C1 21 1 21 1.2734375 22.90625 C2.32351193 25.93227094 4.26517277 27.36118378 6.625 29.5 C17.16492593 39.78359011 22.0271088 51.47491836 22.3125 66.125 C21.87768651 80.87645023 17.13027291 94.0140781 7 105 C-3.59527994 114.79730906 -17.28184151 120.40010243 -31.6875 120.375 C-32.46335449 120.37628906 -33.23920898 120.37757813 -34.03857422 120.37890625 C-41.20013591 120.24915179 -47.32371117 118.64220618 -54 116 C-54.11214844 116.69480469 -54.22429687 117.38960938 -54.33984375 118.10546875 C-55.08446115 121.37032964 -56.24400088 124.23600205 -57.5625 127.3125 C-58.01753906 128.38113281 -58.47257812 129.44976562 -58.94140625 130.55078125 C-59.29074219 131.35902344 -59.64007813 132.16726563 -60 133 C-61.35814777 128.9255567 -59.94745762 126.18531884 -58.5625 122.3125 C-58.31951172 121.61060547 -58.07652344 120.90871094 -57.82617188 120.18554688 C-57.2255056 118.45421468 -56.61380281 116.72671863 -56 115 C-56.639375 114.896875 -57.27875 114.79375 -57.9375 114.6875 C-58.618125 114.460625 -59.29875 114.23375 -60 114 C-60.33 113.01 -60.66 112.02 -61 111 C-62.66047001 109.35522325 -62.66047001 109.35522325 -64.6875 107.75 C-76.80850559 97.37908612 -82.92421781 85.01290116 -84.3515625 69.07421875 C-84.81280321 59.86381824 -83.13339394 52.29967962 -79 44 C-78.56558594 43.11699219 -78.13117188 42.23398438 -77.68359375 41.32421875 C-70.52693791 28.21387771 -58.64942698 19.0911431 -44.484375 14.6875 C-31.34503125 12.09498374 -19.31385242 14.16241512 -7 19 C-6.82984375 18.46632812 -6.6596875 17.93265625 -6.484375 17.3828125 C-4.56536676 11.4828829 -2.35945761 5.73695531 0 0 Z " fill="#F2B32B" transform="translate(437,195)"/>
<path d="M0 0 C2.27885127 2.5548612 4.47649332 5.13373191 6.58203125 7.83203125 C8.46407986 10.0465215 10.11469594 11.7902118 12.99975586 12.47387695 C16.15019487 12.60062505 18.53089182 12.26382323 21.28515625 10.71484375 C21.87167969 10.12832031 22.45820313 9.54179687 23.0625 8.9375 C24.05830078 7.99390625 24.05830078 7.99390625 25.07421875 7.03125 C27.01498697 5.0348297 27.01498697 5.0348297 28.70703125 2.90625 C30.38210342 0.92911563 31.81066602 -0.60843575 34 -2 C37.61543574 -2.28011484 40.61041587 -1.17938955 44 0 C45.06476563 0.32742187 46.12953125 0.65484375 47.2265625 0.9921875 C62.27902368 5.91906531 74.41102628 13.28059457 86 24 C86.74894531 24.66773438 87.49789062 25.33546875 88.26953125 26.0234375 C94.45925087 31.81027596 101.29324392 39.87973176 104 48 C103.28735352 50.04956055 103.28735352 50.04956055 102.12890625 52.38671875 C101.51499023 53.6715918 101.51499023 53.6715918 100.88867188 54.98242188 C100.01303117 56.76852259 99.13290614 58.55243267 98.24804688 60.33398438 C95.62265236 65.85267081 94.18214011 69.86943039 95 76 C97.08800112 78.65908532 99.35644684 79.77680038 102.44921875 81.04296875 C103.29677734 81.39423828 104.14433594 81.74550781 105.01757812 82.10742188 C105.89865234 82.46384766 106.77972656 82.82027344 107.6875 83.1875 C108.58017578 83.55552734 109.47285156 83.92355469 110.39257812 84.30273438 C112.59231167 85.20850701 114.79580341 86.10514295 117 87 C117 92.94 117 98.88 117 105 C113.04 105 109.08 105 105 105 C105.061875 106.69125 105.12375 108.3825 105.1875 110.125 C105.18141742 114.85724729 104.78238256 118.02516777 102 122 C98.10952859 125.52573972 94.32250166 126.45568019 89.0625 126.3203125 C86.28384214 125.88877851 84.27797649 124.80864488 82.23828125 122.87890625 C80.05879417 119.57186118 79.51299462 115.83385412 78.6953125 112.00390625 C76.91779406 104.32462715 73.39222827 99.55013293 67 95 C66.34 94.67 65.68 94.34 65 94 C65 93.34 65 92.68 65 92 C66.65084399 90.78201745 68.34775445 89.62623934 70.0625 88.5 C77.0936464 83.51658438 83.36001566 76.74658313 85 68 C86.36962577 58.63243607 82.93636812 51.39873389 77.46484375 43.89453125 C70.99584756 36.69439544 60.22579003 31.583095 50.57696724 30.80447006 C47.69129549 30.71485087 44.81113905 30.687254 41.92407227 30.68115234 C40.83065018 30.67110672 39.73722809 30.6610611 38.610672 30.65071106 C35.01258854 30.6199303 31.41457933 30.60285788 27.81640625 30.5859375 C25.31533675 30.56722178 22.81427353 30.54764806 20.31321716 30.5272522 C14.41318018 30.48120384 8.51313828 30.44378032 2.61301607 30.41057932 C-4.7678215 30.3685139 -12.14854761 30.31297838 -19.52929688 30.2578125 C-32.68613721 30.16109698 -45.84302626 30.07630368 -59 30 C-58.06606449 28.88900137 -57.12900491 27.78062854 -56.19067383 26.67333984 C-55.40845207 25.74707291 -55.40845207 25.74707291 -54.61042786 24.80209351 C-45.8598103 15.01001806 -12.92380239 -9.56361377 0 0 Z " fill="#03ECB4" transform="translate(161,168)"/>
<path d="M0 0 C4.30609894 -0.09216383 8.60873719 -0.1716866 12.91503906 -0.21972656 C14.37772252 -0.23976332 15.84032666 -0.26700104 17.30273438 -0.30175781 C19.4129601 -0.35063225 21.52212136 -0.37304659 23.6328125 -0.390625 C24.90012207 -0.41157227 26.16743164 -0.43251953 27.47314453 -0.45410156 C32.33044324 0.17130171 35.32589785 2.15078471 38.59179688 5.75830078 C41.99916735 11.23696276 43.32942141 16.5712175 44.5 22.875 C46.12543603 31.55603242 48.08985906 40.27172608 54.6875 46.5625 C57.84470779 48.52508863 59.58221888 49.13164438 63.26611328 49.20532227 C64.14687531 49.22526749 65.02763733 49.24521271 65.93508911 49.26576233 C66.88721283 49.28247482 67.83933655 49.29918732 68.8203125 49.31640625 C70.28100662 49.3475779 70.28100662 49.3475779 71.77120972 49.37937927 C74.88906647 49.44488598 78.00700903 49.50376497 81.125 49.5625 C83.23568604 49.60568415 85.34636333 49.6492984 87.45703125 49.69335938 C92.6379295 49.80056847 97.81891356 49.90233278 103 50 C98.73392116 57.24014523 98.73392116 57.24014523 95 60 C91.04270744 60.23024248 87.33867359 59.30120156 83.5 58.4375 C81.08804747 58.01540831 78.82045043 57.83256344 76.375 57.75 C75.61960938 57.72421875 74.86421875 57.6984375 74.0859375 57.671875 C71.39657318 58.09492107 70.71072897 58.91408565 69 61 C68.28086622 63.05675472 68.28086622 63.05675472 67.9375 65.34375 C67.78023438 66.17777344 67.62296875 67.01179688 67.4609375 67.87109375 C67.30882812 68.73863281 67.15671875 69.60617187 67 70.5 C66.6983058 72.22067964 66.38620083 73.93957426 66.0625 75.65625 C65.92972656 76.41744141 65.79695313 77.17863281 65.66015625 77.96289062 C64.87121058 80.39741823 63.98732423 81.40820405 62 83 C41.96565068 91.73862295 19.26914147 93.94911705 -1.99560547 88.50830078 C-3.38435409 88.1561236 -4.78006017 87.83071035 -6.18017578 87.52685547 C-11.34543432 86.3698466 -15.62431517 85.04304221 -20 82 C-22.59343736 77.72191601 -23.14953525 72.85981876 -23.72949219 67.97314453 C-24.15871961 64.84226367 -24.9366656 61.970644 -26 59 C-30.13915322 56.24056452 -33.32064674 57.27857213 -38 58 C-39.14855469 58.17144531 -40.29710938 58.34289062 -41.48046875 58.51953125 C-44.65570565 59.00083761 -47.82844135 59.49509963 -51 60 C-52.16956591 58.52312468 -53.33558146 57.04343707 -54.5 55.5625 C-55.1496875 54.73878906 -55.799375 53.91507812 -56.46875 53.06640625 C-58 51 -58 51 -58 50 C-30.61 50 -3.22 50 25 50 C25 39.44 25 28.88 25 18 C16.75 18 8.5 18 0 18 C0 12.06 0 6.12 0 0 Z " fill="#02EDB5" transform="translate(155,276)"/>
<path d="M0 0 C11.68962634 5.22425276 20.30438591 14.68250145 26 26 C26.38800781 26.75023437 26.77601563 27.50046875 27.17578125 28.2734375 C33.88997416 42.19012827 33.64151435 57.97723289 29.25390625 72.53125 C25.70146063 82.35857621 20.33471219 89.62613455 13 97 C12.22269531 97.82951172 12.22269531 97.82951172 11.4296875 98.67578125 C-0.54241531 110.30313764 -16.55337948 113.25083142 -32.51538086 113.10351562 C-34.34369535 113.07531434 -36.17187501 113.03857708 -38 113 C-38.06457146 113.99129913 -38.06457146 113.99129913 -38.13044739 115.00262451 C-38.81471265 124.30855344 -40.14168942 133.47983147 -41.51171875 142.703125 C-41.76526648 144.42856401 -42.01849906 146.15404936 -42.2714386 147.87957764 C-42.93818836 152.42171925 -43.60947738 156.96317883 -44.28167725 161.5045166 C-44.81189276 165.09154539 -45.33899361 168.6790281 -45.86587334 172.26654816 C-48.1067976 187.52449526 -50.35897982 202.78067559 -52.66259766 218.02929688 C-52.79828691 218.92870876 -52.93397615 219.82812065 -53.0737772 220.75478745 C-53.71715796 225.01883962 -54.36243387 229.28258369 -55.0118866 233.54571533 C-56.31629687 242.1525722 -57.5053286 250.75917589 -58.51887512 259.40544128 C-59.02245468 263.16776238 -59.69437905 266.84294668 -60.4296875 270.56640625 C-62.45828838 280.95636696 -63.75424902 291.4441353 -65.125 301.9375 C-65.64363582 305.905601 -66.16775337 309.87292044 -66.6953125 313.83984375 C-66.81198273 314.74693588 -66.92865295 315.65402802 -67.04885864 316.58860779 C-67.88720251 322.88720251 -67.88720251 322.88720251 -69 324 C-71.67058851 324.14115161 -74.32432238 324.04247107 -77 324 C-76.37524886 316.25149796 -75.44629288 308.58508321 -74.3203125 300.89453125 C-74.06797096 299.14941757 -74.06797096 299.14941757 -73.81053162 297.36904907 C-73.34900011 294.18516004 -72.88458023 291.00171079 -72.41844559 287.81849289 C-72.12155743 285.78896661 -71.82585831 283.75927027 -71.53048706 281.72952271 C-68.09359075 258.12130115 -64.50194219 234.53778289 -60.87319946 210.95840454 C-55.70051598 177.33662687 -50.82028679 143.67389922 -46 110 C-47.65 109.67 -49.3 109.34 -51 109 C-51.93423645 105.98968256 -52.04449911 105.13349732 -51 102 C-49.58318366 102.31182069 -48.16655349 102.62448737 -46.75 102.9375 C-45.96109375 103.11152344 -45.1721875 103.28554688 -44.359375 103.46484375 C-42.93439581 103.78805923 -41.51397019 104.13415926 -40.10546875 104.52294922 C-36.51552299 105.33634834 -32.91641316 105.18450456 -29.25 105.1875 C-28.4765625 105.19974609 -27.703125 105.21199219 -26.90625 105.22460938 C-13.60245746 105.25809207 -0.2926876 99.47410381 9.5 90.5 C20.28833725 78.69114436 24.56119914 64.23272123 24.23828125 48.51171875 C23.21380172 33.41324168 16.06193625 22.08392801 4.90625 12.12109375 C3 10 3 10 3 6 C2.67 6.99 2.34 7.98 2 9 C0.68 8.34 -0.64 7.68 -2 7 C-1.125 1.125 -1.125 1.125 0 0 Z " fill="#F0FDFB" transform="translate(434,209)"/>
<path d="M0 0 C2.64 0 5.28 0 8 0 C7.37244283 7.90477714 6.39033773 15.71409818 5.21484375 23.5546875 C4.94999428 25.34572403 4.94999428 25.34572403 4.67979431 27.17294312 C4.20152919 30.40230889 3.72049458 33.63124645 3.23812103 36.86000061 C2.8321588 39.58107985 2.42866815 42.30252328 2.02518845 45.02397156 C-0.81640902 64.18876241 -3.70993146 83.34560966 -6.61856079 102.50033569 C-9.07942701 118.71781497 -11.44625182 134.9469833 -13.75 151.1875 C-17.4740051 177.43529753 -17.4740051 177.43529753 -19.375 189.875 C-19.5306543 190.90262451 -19.68630859 191.93024902 -19.84667969 192.98901367 C-19.98750977 193.89756104 -20.12833984 194.8061084 -20.2734375 195.7421875 C-20.39122559 196.5038623 -20.50901367 197.26553711 -20.63037109 198.05029297 C-21 200 -21 200 -22 203 C-21.35933594 203.03738281 -20.71867187 203.07476562 -20.05859375 203.11328125 C-14.39993859 203.54337277 -10.07826187 204.46086906 -5 207 C-5.33 209.31 -5.66 211.62 -6 214 C-9.78597774 213.48373031 -12.61339441 212.69330279 -16 211 C-31.13887231 207.85366811 -45.54752652 209.56230948 -58.8125 217.75 C-60.23482671 218.79830746 -61.63088525 219.8830906 -63 221 C-64.12148438 221.90105469 -64.12148438 221.90105469 -65.265625 222.8203125 C-73.92645458 230.56792536 -81.32957492 243.91136494 -82.30078125 255.62890625 C-82.351971 272.81159882 -78.69068204 287.60220125 -66.25 300.125 C-64.84226507 301.42639524 -63.42604951 302.71869987 -62 304 C-61.29875 304.71414063 -60.5975 305.42828125 -59.875 306.1640625 C-58.00798913 307.99217731 -56.38618137 308.97735084 -54 310 C-54.66 311.65 -55.32 313.3 -56 315 C-63.91159298 314.50552544 -70.52885608 307.04310934 -75.7578125 301.6875 C-87.23917461 287.92586737 -91.13650292 271.88925667 -90.22216797 254.21337891 C-88.62985249 238.34971724 -79.02742309 223.92376734 -67 214 C-57.58967474 207.23867158 -46.53560903 201.8719476 -34.79199219 201.96289062 C-33.89389832 201.96824829 -32.99580444 201.97360596 -32.07049561 201.97912598 C-31.38723206 201.9860144 -30.70396851 201.99290283 -30 202 C-29.93105026 201.42319992 -29.86210052 200.84639984 -29.7910614 200.25212097 C-27.74235229 183.22878269 -25.341677 166.27040232 -22.8125 149.3125 C-22.51632674 147.31882191 -22.22053401 145.3250876 -21.92477226 143.33134842 C-20.62246303 134.553342 -19.31191671 125.7765748 -18 117 C-17.81314636 115.74850159 -17.62629272 114.49700317 -17.43377686 113.20758057 C-13.93595131 89.78047295 -10.43832459 66.35619541 -6.58764648 42.98413086 C-5.20320889 34.50197948 -4.0101763 26.00652858 -2.98706055 17.47314453 C-2.26924976 11.58090323 -1.24175957 5.80443196 0 0 Z " fill="#F4FDF9" transform="translate(436,0)"/>
<path d="M0 0 C4.95 0 9.9 0 15 0 C15.06058594 1.54429687 15.12117188 3.08859375 15.18359375 4.6796875 C15.26807554 6.74479796 15.35271962 8.80990178 15.4375 10.875 C15.47681641 11.88820312 15.51613281 12.90140625 15.55664062 13.9453125 C15.61948242 15.45351562 15.61948242 15.45351562 15.68359375 16.9921875 C15.72025146 17.90339355 15.75690918 18.81459961 15.79467773 19.75341797 C16.07452168 24.17834639 16.55882353 28.58823533 17 33 C21.62 22.11 26.24 11.22 31 0 C36.28 0 41.56 0 47 0 C46.30091886 3.49540569 45.79133836 5.81258089 44.40869141 8.91870117 C43.92089706 10.0249736 43.92089706 10.0249736 43.42324829 11.15359497 C43.06959198 11.94208832 42.71593567 12.73058167 42.3515625 13.54296875 C41.98316254 14.37561249 41.61476257 15.20825623 41.23519897 16.06613159 C40.44569279 17.84955804 39.65400802 19.63202135 38.86035156 21.41360474 C36.78411588 26.07564631 34.72492108 30.74520821 32.6640625 35.4140625 C32.25690002 36.3354451 31.84973755 37.2568277 31.43023682 38.20613098 C26.48306131 49.41322211 21.71669748 60.69414724 17 72 C16.53029785 73.12422363 16.0605957 74.24844727 15.57666016 75.40673828 C12.71062751 82.26819449 9.85134431 89.13242719 7 96 C5.90939095 92.72817286 6.0254015 92.18238986 7.07983398 89.0793457 C7.34017929 88.29876297 7.6005246 87.51818024 7.86875916 86.71394348 C8.15827957 85.87634995 8.44779999 85.03875641 8.74609375 84.17578125 C9.03605728 83.31438034 9.32602081 82.45297943 9.62477112 81.56547546 C10.55394963 78.81155798 11.49555024 76.06207223 12.4375 73.3125 C13.06918131 71.44754382 13.70005102 69.58231253 14.33007812 67.71679688 C15.87581153 63.14069284 17.43826017 58.5707908 19 54 C13.06 54 7.12 54 1 54 C0.26634346 46.80305783 -0.13988309 39.75029097 -0.09765625 32.51953125 C-0.0962413 31.58066574 -0.09482635 30.64180023 -0.09336853 29.67448425 C-0.08783898 26.72045496 -0.07530045 23.76650579 -0.0625 20.8125 C-0.05747587 18.79101673 -0.05291458 16.76953226 -0.04882812 14.74804688 C-0.03789277 9.8320011 -0.02067824 4.91601406 0 0 Z " fill="#080B10" transform="translate(370,232)"/>
<path d="M0 0 C1.18772488 3.56317464 0.73719067 4.47771793 -0.4765625 7.9453125 C-0.81558594 8.93273437 -1.15460938 9.92015625 -1.50390625 10.9375 C-1.87386719 11.989375 -2.24382812 13.04125 -2.625 14.125 C-3.36958763 16.29344818 -4.1117606 18.46272693 -4.8515625 20.6328125 C-5.21797852 21.70692383 -5.58439453 22.78103516 -5.96191406 23.88769531 C-8.17764366 30.53071529 -10.09586041 37.2622753 -12 44 C-11.01 43.505 -11.01 43.505 -10 43 C-7.03048651 42.87505961 -4.09467605 42.81482369 -1.125 42.8125 C-0.30902344 42.80025391 0.50695312 42.78800781 1.34765625 42.77539062 C2.13785156 42.77345703 2.92804688 42.77152344 3.7421875 42.76953125 C4.4626123 42.76542236 5.18303711 42.76131348 5.92529297 42.75708008 C8.37466232 43.04386785 9.9382568 43.64913509 12 45 C13.5230327 49.66428763 12.99209689 52.58388993 11.0625 56.9375 C10.381875 58.278125 9.70125 59.61875 9 61 C4.38 61 -0.24 61 -5 61 C-4.01 57.37 -3.02 53.74 -2 50 C-6.29551642 51.58071563 -6.29551642 51.58071563 -7.3125 55.5 C-7.60486739 58.7697414 -7.08030009 59.88659523 -5.15234375 62.609375 C-3.57379915 64.34449069 -1.95555362 66.04444638 -0.296875 67.703125 C1.72472592 69.72472592 3.4713198 71.58786176 5 74 C5 81.21427688 1.61256481 88.24621547 -3.3125 93.4375 C-11.64745648 98.28340493 -19.39612572 99.06709714 -29 98 C-34.26209677 95.73790323 -34.26209677 95.73790323 -36 94 C-36.83497937 86.48518564 -34.35158259 81.70316518 -31 75 C-26.38 75 -21.76 75 -17 75 C-17.88420206 80.30521238 -19.05527566 84.09591252 -21 89 C-18.54775306 88.89386164 -18.54775306 88.89386164 -16 88 C-13.61982882 84.14638952 -13.57519922 80.4320881 -14 76 C-16.10691153 73.02049947 -16.10691153 73.02049947 -18.9375 70.4375 C-22.88583172 66.61133889 -24.78333846 64.5597826 -25 59 C-24.10640873 55.80424368 -22.77045931 52.84413741 -21.40625 49.82421875 C-21.02190796 48.940793 -20.63756592 48.05736725 -20.24157715 47.14717102 C-19.00847859 44.32085379 -17.75496276 41.50416738 -16.5 38.6875 C-15.68607293 36.83591312 -14.87355912 34.98370431 -14.0625 33.13085938 C-12.86453401 30.39427398 -11.66568892 27.65813586 -10.4609375 24.92453003 C-6.83048356 16.674207 -3.38336159 8.35422624 0 0 Z " fill="#0A0C10" transform="translate(437,195)"/>
<path d="M0 0 C4.62 0 9.24 0 14 0 C14 21.12 14 42.24 14 64 C4.43 64 -5.14 64 -15 64 C-18.70406194 51.03578322 -19.23630199 39.40357372 -19 26 C-15.54947917 24.27473958 -12.09895833 22.54947917 -8.6484375 20.82421875 C-8.03967773 20.51919434 -7.43091797 20.21416992 -6.80371094 19.89990234 C-5.07331703 19.03657913 -3.33754564 18.18405976 -1.6015625 17.33203125 C0.86535209 16.23702819 0.86535209 16.23702819 2 15 C2.2857653 9.47520423 1.74511597 5.23534791 0 0 Z " fill="#04EAB3" transform="translate(95,229)"/>
<path d="M0 0 C4.98141263 -0.09224838 9.95981736 -0.17175286 14.94140625 -0.21972656 C16.63291511 -0.2397406 18.32435567 -0.26696073 20.015625 -0.30175781 C22.45850554 -0.35073065 24.90046511 -0.37307033 27.34375 -0.390625 C28.08991577 -0.41127014 28.83608154 -0.43191528 29.6048584 -0.45318604 C36.05053284 -0.45589021 41.20086597 1.54015494 46.0625 5.8125 C47.54664466 9.27550421 47.08095625 11.43920295 46 15 C40.15510961 19.93568522 35.10494982 20.14726645 27.734375 20.09765625 C26.94097717 20.0962413 26.14757935 20.09482635 25.33013916 20.09336853 C22.80338728 20.08778415 20.27672496 20.07523454 17.75 20.0625 C16.03385545 20.05748298 14.31770951 20.05292043 12.6015625 20.04882812 C8.40097965 20.03867198 4.20058973 20.01909359 0 20 C0 13.4 0 6.8 0 0 Z " fill="#02EDB5" transform="translate(154,229)"/>
<path d="M0 0 C1 3 1 3 1.2734375 4.90625 C2.32351193 7.93227094 4.26517277 9.36118378 6.625 11.5 C17.16492593 21.78359011 22.0271088 33.47491836 22.3125 48.125 C22.18999638 53.92780324 21.44927315 59.38406655 20 65 C18.97754179 61.68131409 18.95556129 58.81716411 19.12109375 55.359375 C19.19360352 53.75449219 19.19360352 53.75449219 19.26757812 52.1171875 C19.32365234 51.00601563 19.37972656 49.89484375 19.4375 48.75 C19.48970703 47.62335938 19.54191406 46.49671875 19.59570312 45.3359375 C19.72522986 42.55700028 19.86019053 39.77843576 20 37 C19.34 37 18.68 37 18 37 C18 34.69 18 32.38 18 30 C17.34 30 16.68 30 16 30 C16 28.68 16 27.36 16 26 C15.34 26.33 14.68 26.66 14 27 C14.02320313 27.58007812 14.04640625 28.16015625 14.0703125 28.7578125 C14.18250423 33.61411166 13.87514915 37.42932395 12 42 C11.34 42 10.68 42 10 42 C10.144375 41.154375 10.28875 40.30875 10.4375 39.4375 C11.55502562 33.25049103 11.55502562 33.25049103 12 27 C9.00293305 26.13036913 6.35043474 25.88236901 3.234375 25.90234375 C2.34492188 25.90556641 1.45546875 25.90878906 0.5390625 25.91210938 C-0.38132812 25.92048828 -1.30171875 25.92886719 -2.25 25.9375 C-3.18585938 25.94201172 -4.12171875 25.94652344 -5.0859375 25.95117188 C-7.39069041 25.96293082 -9.69531227 25.97936574 -12 26 C-11.38334864 20.60607261 -10.12077204 15.71604717 -8.4375 10.5625 C-8.20353516 9.83095703 -7.96957031 9.09941406 -7.72851562 8.34570312 C-7.15732778 6.56219821 -6.57936877 4.78086417 -6 3 C-3.525 3.99 -3.525 3.99 -1 5 C-0.67 3.35 -0.34 1.7 0 0 Z " fill="#EDB130" transform="translate(437,213)"/>
<path d="M0 0 C3.3 0 6.6 0 10 0 C10 3.3 10 6.6 10 10 C12.97 10 15.94 10 19 10 C19 12.97 19 15.94 19 19 C16.03 19 13.06 19 10 19 C10 22.3 10 25.6 10 29 C6.7 29 3.4 29 0 29 C0 25.7 0 22.4 0 19 C-2.97 19 -5.94 19 -9 19 C-9 16.03 -9 13.06 -9 10 C-6.03 10 -3.06 10 0 10 C0 6.7 0 3.4 0 0 Z " fill="#3BC7CC" transform="translate(720,252)"/>
<path d="M0 0 C3.3 0 6.6 0 10 0 C10 3.3 10 6.6 10 10 C12.97 10 15.94 10 19 10 C19 12.97 19 15.94 19 19 C16.03 19 13.06 19 10 19 C10 22.3 10 25.6 10 29 C6.7 29 3.4 29 0 29 C0 25.7 0 22.4 0 19 C-2.97 19 -5.94 19 -9 19 C-9 16.03 -9 13.06 -9 10 C-6.03 10 -3.06 10 0 10 C0 6.7 0 3.4 0 0 Z " fill="#3CCACE" transform="translate(687,252)"/>
<path d="M0 0 C-1.35215675 4.4541634 -2.83882924 8.72380736 -4.79296875 12.94921875 C-5.11322021 13.64660156 -5.43347168 14.34398437 -5.76342773 15.0625 C-6.41253051 16.46061694 -7.07451116 17.85283897 -7.75024414 19.23828125 C-9.75712105 23.57632511 -10.53114564 26.41310644 -9 31 C-7.53498049 33.02724567 -7.53498049 33.02724567 -5.625 34.625 C-4.99722656 35.21539062 -4.36945313 35.80578125 -3.72265625 36.4140625 C-2.86994141 37.19910156 -2.86994141 37.19910156 -2 38 C0.5870809 40.67053512 0.95663814 41.60974327 1.375 45.375 C0.97567245 49.23516636 -0.05300383 51.67388155 -2 55 C-3.65 55 -5.3 55 -7 55 C-6.36843005 49.94744036 -4.86540627 45.70406799 -3 41 C-7.62 41.33 -12.24 41.66 -17 42 C-18.98 46.95 -18.98 46.95 -21 52 C-21.33 50.68 -21.66 49.36 -22 48 C-22.66 48 -23.32 48 -24 48 C-24 49.32 -24 50.64 -24 52 C-24.66 52 -25.32 52 -26 52 C-25.31858215 47.00919304 -23.27942436 42.71728088 -21.25390625 38.15625 C-20.88273178 37.30953735 -20.51155731 36.46282471 -20.12913513 35.5904541 C-18.94492395 32.89155638 -17.75393742 30.1957144 -16.5625 27.5 C-15.37608467 24.80366716 -14.19106023 22.1067278 -13.00657654 19.4095459 C-12.27011207 17.73386327 -11.53226781 16.05878621 -10.79286194 14.38439941 C-10.45588791 13.6201062 -10.11891388 12.85581299 -9.77172852 12.06835938 C-9.47718277 11.40171265 -9.18263702 10.73506592 -8.87916565 10.04821777 C-7.87814428 7.71610918 -6.94254054 5.35635134 -6 3 C-10.95 3 -15.9 3 -21 3 C-21 2.67 -21 2.34 -21 2 C-19.19402344 1.90912109 -19.19402344 1.90912109 -17.3515625 1.81640625 C-15.77602923 1.73200268 -14.20050904 1.64735459 -12.625 1.5625 C-11.8309375 1.52318359 -11.036875 1.48386719 -10.21875 1.44335938 C-6.68012647 1.2484352 -3.35189233 0 0 0 Z " fill="#EDB02C" transform="translate(423,229)"/>
<path d="M0 0 C3.5 0.625 3.5 0.625 6.5 2.6875 C8.5 5.625 8.5 5.625 8.625 9.1875 C7.28947087 13.26828346 6.23400421 14.55055322 2.5 16.625 C-0.5 17.25 -0.5 17.25 -3.5 16.625 C-6.39011591 13.92336991 -8.17909338 11.94071714 -9.125 8.0625 C-7.84284715 3.06210389 -4.95869634 0.88548149 0 0 Z " fill="#03EDB5" transform="translate(176.5,152.375)"/>
<path d="M0 0 C3.38121991 2.44598887 4.76936783 3.89296559 5.625 8 C4.76936783 12.10703441 3.38121991 13.55401113 0 16 C-3.5625 16.625 -3.5625 16.625 -7 16 C-10.22456813 13.27151928 -10.91290117 11.62057913 -11.5 7.4375 C-11 4 -11 4 -9.4375 1.5625 C-6.01685857 -0.63021887 -3.99048721 -0.63007693 0 0 Z " fill="#07E7B1" transform="translate(119,343)"/>
<path d="M0 0 C2.92212377 2.62241877 3.86731137 4.18728214 4.5 8.0625 C4 11 4 11 2.5 13.375 C-1.01515252 15.65984914 -3.92042297 15.80253974 -8 15 C-10.5 13.5 -10.5 13.5 -12 11 C-12.60473284 8.18943213 -12.653842 5.80463806 -12 3 C-8.39055206 -1.48446562 -5.36203018 -1.65735478 0 0 Z " fill="#05E8B2" transform="translate(242,344)"/>
<path d="M0 0 C2.16796875 0.4453125 2.16796875 0.4453125 4.79296875 2.5078125 C6.61209557 6.39412888 6.4291101 8.3651493 5.16796875 12.4453125 C3.04296875 14.9453125 3.04296875 14.9453125 0.16796875 16.4453125 C-3.29962067 16.38552648 -5.72029874 16.05497227 -8.76953125 14.3828125 C-10.52262337 11.18599746 -10.31870257 7.95075661 -9.83203125 4.4453125 C-8.04213228 -0.32775142 -4.59991014 -0.22511795 0 0 Z " fill="#07E5B0" transform="translate(276.83203125,227.5546875)"/>
<path d="M0 0 C2.4375 1.6875 2.4375 1.6875 4 4 C4.63656938 7.73984509 4.25584708 9.50962644 2.5 12.875 C-0.54107505 15.4599138 -2.20036045 15.69344392 -6.09375 15.41015625 C-8 15 -8 15 -10.5 13.5 C-12.61452102 9.9757983 -12.93350908 7.00426261 -12 3 C-8.37297107 -1.50630867 -5.38985745 -1.56795853 0 0 Z " fill="#08E6B0" transform="translate(83,228)"/>
<path d="M0 0 C0.89130413 2.6739124 1.47731534 5.23723823 2 8 C1.34 8 0.68 8 0 8 C-0.103125 8.639375 -0.20625 9.27875 -0.3125 9.9375 C-1.23903073 14.06477326 -2.61660629 18.00642949 -4 22 C-3.34 22 -2.68 22 -2 22 C-2 21.34 -2 20.68 -2 20 C1.465 19.505 1.465 19.505 5 19 C5 23 5 23 4 25 C1.28553021 25.31241455 -1.33909361 25.51336592 -4.0625 25.625 C-5.20041992 25.68300781 -5.20041992 25.68300781 -6.36132812 25.7421875 C-8.24047195 25.83673562 -10.12020336 25.91946756 -12 26 C-11.38334864 20.60607261 -10.12077204 15.71604717 -8.4375 10.5625 C-8.20353516 9.83095703 -7.96957031 9.09941406 -7.72851562 8.34570312 C-7.15732778 6.56219821 -6.57936877 4.78086417 -6 3 C-3.525 3.99 -3.525 3.99 -1 5 C-0.67 3.35 -0.34 1.7 0 0 Z " fill="#E9AC25" transform="translate(437,213)"/>
<path d="M0 0 C1.34627121 4.03881364 0.21805677 5.40588102 -1.5 9.2578125 C-1.77141312 9.87432678 -2.04282623 10.49084106 -2.32246399 11.1260376 C-3.20642079 13.12960388 -4.10324735 15.1271328 -5 17.125 C-5.9056184 19.1706099 -6.80779445 21.21771496 -7.70979309 23.2649231 C-8.30601238 24.61752088 -8.90333001 25.96963507 -9.50175476 27.32125854 C-11.85404136 32.63937538 -14.11929504 37.9891701 -16.3125 43.375 C-16.59544922 44.06867676 -16.87839844 44.76235352 -17.16992188 45.47705078 C-17.78253482 46.98365122 -18.3917822 48.49161987 -19 50 C-20.09060905 46.72817286 -19.9745985 46.18238986 -18.92016602 43.0793457 C-18.65982071 42.29876297 -18.3994754 41.51818024 -18.13124084 40.71394348 C-17.84172043 39.87634995 -17.55220001 39.03875641 -17.25390625 38.17578125 C-16.96394272 37.31438034 -16.67397919 36.45297943 -16.37522888 35.56547546 C-15.44605037 32.81155798 -14.50444976 30.06207223 -13.5625 27.3125 C-12.93081869 25.44754382 -12.29994898 23.58231253 -11.66992188 21.71679688 C-10.12418847 17.14069284 -8.56173983 12.5707908 -7 8 C-12.94 8 -18.88 8 -25 8 C-25 7.67 -25 7.34 -25 7 C-18.73 7 -12.46 7 -6 7 C-5.67 5.68 -5.34 4.36 -5 3 C-4.67 3.66 -4.34 4.32 -4 5 C-1.48916886 3.74458443 -1.12874554 2.49936512 0 0 Z " fill="#261B06" transform="translate(396,278)"/>
<path d="M0 0 C1.18772488 3.56317464 0.73719067 4.47771793 -0.4765625 7.9453125 C-0.81558594 8.93273437 -1.15460938 9.92015625 -1.50390625 10.9375 C-1.87386719 11.989375 -2.24382812 13.04125 -2.625 14.125 C-3.36958763 16.29344818 -4.1117606 18.46272693 -4.8515625 20.6328125 C-5.21797852 21.70692383 -5.58439453 22.78103516 -5.96191406 23.88769531 C-8.17764366 30.53071529 -10.09586041 37.2622753 -12 44 C-12.99 43.34 -13.98 42.68 -15 42 C-15.33 42.99 -15.66 43.98 -16 45 C-16.66 45 -17.32 45 -18 45 C-16.0700486 38.95839129 -13.89064168 33.08850974 -11.42578125 27.24609375 C-11.09708542 26.45977066 -10.76838959 25.67344757 -10.42973328 24.86329651 C-9.39368719 22.38674815 -8.35318065 19.91210389 -7.3125 17.4375 C-6.60321793 15.74426529 -5.89423091 14.05090697 -5.18554688 12.35742188 C-3.46043384 8.23684632 -1.73132184 4.11797046 0 0 Z " fill="#1C1203" transform="translate(437,195)"/>
<path d="M0 0 C11.88 0 23.76 0 36 0 C36 0.33 36 0.66 36 1 C19.665 1.495 19.665 1.495 3 2 C2.67 7.61 2.34 13.22 2 19 C13.22 19 24.44 19 36 19 C36 19.33 36 19.66 36 20 C24.12 20 12.24 20 0 20 C0 13.4 0 6.8 0 0 Z " fill="#069473" transform="translate(154,229)"/>
<path d="M0 0 C0.33 0 0.66 0 1 0 C1.02696365 1.79158489 1.04637917 3.58328473 1.0625 5.375 C1.07410156 6.37273438 1.08570313 7.37046875 1.09765625 8.3984375 C1 11 1 11 0 13 C-0.31583446 16.37328752 -0.51133762 19.74734365 -0.71875 23.12890625 C-1 26 -1 26 -2 27 C-2.20888708 28.99603206 -2.36775477 30.99742941 -2.5 33 C-2.88888889 38.88888889 -2.88888889 38.88888889 -4 40 C-4.20888708 41.99603206 -4.36775477 43.99742941 -4.5 46 C-4.88888889 51.88888889 -4.88888889 51.88888889 -6 53 C-6.23363881 54.84891946 -6.41303635 56.70488031 -6.5625 58.5625 C-6.64628906 59.57441406 -6.73007812 60.58632813 -6.81640625 61.62890625 C-6.90728516 62.80259766 -6.90728516 62.80259766 -7 64 C-7.66 64 -8.32 64 -9 64 C-7.05401731 42.47972086 -3.60916428 21.29655071 0 0 Z " fill="#D3FEFB" transform="translate(436,0)"/>
<path d="M0 0 C0.33 0 0.66 0 1 0 C-0.12064658 32.12064658 -0.12064658 32.12064658 -3 35 C-3.20968751 37.32986123 -3.36815389 39.66444036 -3.5 42 C-3.88888889 48.88888889 -3.88888889 48.88888889 -5 50 C-5.23427778 52.01594582 -5.41336124 54.038474 -5.5625 56.0625 C-5.64628906 57.16722656 -5.73007812 58.27195312 -5.81640625 59.41015625 C-5.87699219 60.26480469 -5.93757813 61.11945313 -6 62 C-6.66 62 -7.32 62 -8 62 C-7.4408739 48.91674127 -5.37633448 36.05882843 -3.4375 23.125 C-3.10434002 20.87637281 -2.77165394 18.62767535 -2.43945312 16.37890625 C-1.63176293 10.91844885 -0.81823058 5.45888738 0 0 Z " fill="#61D5D9" transform="translate(383,408)"/>
<path d="M0 0 C3.37177797 1.39521847 5.25017709 2.76282761 7 6 C7.58328584 11.24957258 6.65126436 14.47075673 4 19 C2.35 19 0.7 19 -1 19 C-0.36843005 13.94744036 1.13459373 9.70406799 3 5 C-1.62 5 -6.24 5 -11 5 C-11 4.67 -11 4.34 -11 4 C-5.06 3.505 -5.06 3.505 1 3 C0.67 2.01 0.34 1.02 0 0 Z " fill="#EBB132" transform="translate(417,265)"/>
<path d="M0 0 C0.89130413 2.6739124 1.47731534 5.23723823 2 8 C1.34 8 0.68 8 0 8 C-0.0825 8.639375 -0.165 9.27875 -0.25 9.9375 C-1.29520372 14.20541517 -3.14091826 18.03107667 -5 22 C-5.66 22 -6.32 22 -7 22 C-7 19.36 -7 16.72 -7 14 C-7.33 14 -7.66 14 -8 14 C-7.125 6.375 -7.125 6.375 -6 3 C-3.525 3.99 -3.525 3.99 -1 5 C-0.67 3.35 -0.34 1.7 0 0 Z " fill="#CEA243" transform="translate(437,213)"/>
<path d="M0 0 C-1.93624298 6.20477864 -4.25609141 12.10825719 -7 18 C-8.32 17.01 -9.64 16.02 -11 15 C-9.35 11.04 -7.7 7.08 -6 3 C-10.95 3 -15.9 3 -21 3 C-21 2.67 -21 2.34 -21 2 C-19.19402344 1.90912109 -19.19402344 1.90912109 -17.3515625 1.81640625 C-15.77602923 1.73200268 -14.20050904 1.64735459 -12.625 1.5625 C-11.8309375 1.52318359 -11.036875 1.48386719 -10.21875 1.44335938 C-6.68012647 1.2484352 -3.35189233 0 0 0 Z " fill="#DBA93B" transform="translate(423,229)"/>
<path d="M0 0 C0.66 0 1.32 0 2 0 C1.41422255 11.23019061 -0.30202347 22.21896114 -2.0625 33.3125 C-2.34746469 35.13208956 -2.63197317 36.95175063 -2.91601562 38.77148438 C-3.60542787 43.18183044 -4.3009803 47.59116691 -5 52 C-5.33 52 -5.66 52 -6 52 C-6.02685938 49.85423363 -6.04633088 47.70837355 -6.0625 45.5625 C-6.07410156 44.36753906 -6.08570313 43.17257812 -6.09765625 41.94140625 C-6 39 -6 39 -5 38 C-4.79111292 36.00396794 -4.63224523 34.00257059 -4.5 32 C-4.11111111 26.11111111 -4.11111111 26.11111111 -3 25 C-2.76518307 22.81707226 -2.58636677 20.62796826 -2.4375 18.4375 C-2.31181641 16.64119141 -2.31181641 16.64119141 -2.18359375 14.80859375 C-2.12300781 13.88175781 -2.06242187 12.95492188 -2 12 C-1.34 12 -0.68 12 0 12 C0 8.04 0 4.08 0 0 Z " fill="#27E2B6" transform="translate(373,408)"/>
<path d="M0 0 C0.33 0 0.66 0 1 0 C0.86183041 3.64616671 0.71318466 7.29183074 0.5625 10.9375 C0.52318359 11.97841797 0.48386719 13.01933594 0.44335938 14.09179688 C0.40146484 15.08115234 0.35957031 16.07050781 0.31640625 17.08984375 C0.27974854 18.00628662 0.24309082 18.92272949 0.20532227 19.86694336 C0 22 0 22 -1 23 C-1.20888708 24.99603206 -1.36775477 26.99742941 -1.5 29 C-1.88888889 34.88888889 -1.88888889 34.88888889 -3 36 C-3.53690911 39.35680989 -3.96627385 42.72245328 -4.40234375 46.09375 C-4.59957031 47.0528125 -4.79679687 48.011875 -5 49 C-5.99 49.495 -5.99 49.495 -7 50 C-5.0204172 33.2738937 -2.64998525 16.63275693 0 0 Z " fill="#BDFCF4" transform="translate(413,152)"/>
<path d="M0 0 C0.66 0 1.32 0 2 0 C0.9318153 5.11365014 -0.23107476 10.07227969 -2 15 C-3.32 15 -4.64 15 -6 15 C-6.99 17.475 -6.99 17.475 -8 20 C-9.31225809 16.06322574 -8.3393954 14.2205738 -7.0625 10.3125 C-6.49208984 8.54326172 -6.49208984 8.54326172 -5.91015625 6.73828125 C-5.60980469 5.83464844 -5.30945313 4.93101562 -5 4 C-3.35 3.67 -1.7 3.34 0 3 C0 2.01 0 1.02 0 0 Z " fill="#DDAB3F" transform="translate(387,286)"/>
<path d="M0 0 C0.33 0 0.66 0 1 0 C0.3844369 10.69862204 -1.3477545 21.18677241 -3.0625 31.75 C-3.34741506 33.52597596 -3.63192333 35.30201724 -3.91601562 37.078125 C-4.60599372 41.3861833 -5.30145617 45.69332268 -6 50 C-6.33 50 -6.66 50 -7 50 C-6.8595017 47.2079699 -6.71284617 44.41650204 -6.5625 41.625 C-6.52318359 40.8309375 -6.48386719 40.036875 -6.44335938 39.21875 C-6.11328125 33.2265625 -6.11328125 33.2265625 -5 31 C-4.81806718 28.77348886 -4.6786685 26.54340929 -4.5625 24.3125 C-4.23201628 19.2364766 -3.58536959 14.8493658 -2 10 C-1.27641752 6.67742737 -0.63192 3.34110894 0 0 Z " fill="#D7FCFD" transform="translate(435,54)"/>
<path d="M0 0 C2.66106724 2.33413612 3.84420021 4.52982022 5.125 7.8125 C5.45757812 8.64394531 5.79015625 9.47539062 6.1328125 10.33203125 C9.53067343 20.78581059 8.71384228 32.48386115 6 43 C4.97754179 39.68131409 4.95556129 36.81716411 5.12109375 33.359375 C5.19360352 31.75449219 5.19360352 31.75449219 5.26757812 30.1171875 C5.32365234 29.00601562 5.37972656 27.89484375 5.4375 26.75 C5.48970703 25.62335938 5.54191406 24.49671875 5.59570312 23.3359375 C5.72522986 20.55700028 5.86019053 17.77843576 6 15 C5.34 15 4.68 15 4 15 C4 12.69 4 10.38 4 8 C3.34 8 2.68 8 2 8 C0.74335022 5.09399739 0 3.20395416 0 0 Z " fill="#EABC56" transform="translate(451,235)"/>
<path d="M0 0 C0.33 0 0.66 0 1 0 C1.02684679 2.64590014 1.04676357 5.29153096 1.0625 7.9375 C1.07087891 8.69224609 1.07925781 9.44699219 1.08789062 10.22460938 C1.09652441 12.14994313 1.05224333 14.07535581 1 16 C0.67 16.33 0.34 16.66 0 17 C-0.23363881 18.84891946 -0.41303635 20.70488031 -0.5625 22.5625 C-0.64628906 23.57441406 -0.73007812 24.58632813 -0.81640625 25.62890625 C-0.87699219 26.41136719 -0.93757813 27.19382812 -1 28 C-1.66 28 -2.32 28 -3 28 C-3 32.29 -3 36.58 -3 41 C-3.66 41 -4.32 41 -5 41 C-5.10643649 35.5504515 -4.77209992 30.38772324 -3.90625 25 C-3.79526978 24.2788501 -3.68428955 23.5577002 -3.56994629 22.81469727 C-3.21891955 20.54221556 -2.85961672 18.27113645 -2.5 16 C-2.25856284 14.44670024 -2.01767245 12.8933154 -1.77734375 11.33984375 C-1.19120433 7.55888392 -0.59764602 3.77915736 0 0 Z " fill="#C8FDF7" transform="translate(366,468)"/>
<path d="M0 0 C1.65 0.33 3.3 0.66 5 1 C5 2.32 5 3.64 5 5 C5.66 3.68 6.32 2.36 7 1 C7.99 1 8.98 1 10 1 C9.125 7.75 9.125 7.75 8 10 C6.35 10 4.7 10 3 10 C2.67 9.01 2.34 8.02 2 7 C0.37347684 5.29413425 -1.29006566 3.6222454 -3 2 C-2.34 2 -1.68 2 -1 2 C-0.67 1.34 -0.34 0.68 0 0 Z " fill="#E9B544" transform="translate(374,299)"/>
<path d="M0 0 C0.33 0 0.66 0 1 0 C1.02687279 1.81242052 1.04633715 3.62495233 1.0625 5.4375 C1.07410156 6.44683594 1.08570313 7.45617187 1.09765625 8.49609375 C1 11 1 11 0 12 C-0.09823996 13.47648876 -0.12973519 14.95775417 -0.125 16.4375 C-0.12757813 17.24058594 -0.13015625 18.04367187 -0.1328125 18.87109375 C-0.13578326 21.05397931 -0.13578326 21.05397931 1 23 C1.39315079 25.8754532 1.74649025 28.74111846 2.0625 31.625 C2.15337891 32.42679687 2.24425781 33.22859375 2.33789062 34.0546875 C2.56197653 36.03607868 2.7814275 38.01799305 3 40 C-1.91267173 32.6309924 -2.17980739 24.1003378 -2.1875 15.5 C-2.19974609 14.77941406 -2.21199219 14.05882812 -2.22460938 13.31640625 C-2.23765951 8.50525817 -1.52038978 4.56717879 0 0 Z " fill="#C8FDF7" transform="translate(348,245)"/>
<path d="M0 0 C2.32891212 3.49336818 2.23551143 4.86007865 2.1953125 8.98046875 C2.18886719 10.14384766 2.18242187 11.30722656 2.17578125 12.50585938 C2.15902344 13.72080078 2.14226562 14.93574219 2.125 16.1875 C2.11597656 17.41404297 2.10695313 18.64058594 2.09765625 19.90429688 C2.07406017 22.93639295 2.04113841 25.96809938 2 29 C2.66 29 3.32 29 4 29 C3.01 32.465 3.01 32.465 2 36 C1.67 36 1.34 36 1 36 C-0.28811102 24.01596707 -0.10026305 12.03619371 0 0 Z " fill="#B58E38" transform="translate(385,232)"/>
<path d="M0 0 C1.16180951 3.48542854 0.8772131 3.97230669 -0.6875 7.125 C-1.02136719 7.82882812 -1.35523438 8.53265625 -1.69921875 9.2578125 C-3 11 -3 11 -5.14453125 11.7421875 C-5.75683594 11.82726562 -6.36914062 11.91234375 -7 12 C-7 10.68 -7 9.36 -7 8 C-12.94 8 -18.88 8 -25 8 C-25 7.67 -25 7.34 -25 7 C-18.73 7 -12.46 7 -6 7 C-5.67 5.68 -5.34 4.36 -5 3 C-4.67 3.66 -4.34 4.32 -4 5 C-1.48916886 3.74458443 -1.12874554 2.49936512 0 0 Z " fill="#281E0D" transform="translate(396,278)"/>
<path d="M0 0 C0.99 0 1.98 0 3 0 C2.33333333 4 1.66666667 8 1 12 C2.32 12.66 3.64 13.32 5 14 C4.67 14.99 4.34 15.98 4 17 C1.09197539 14.78071806 -0.95312762 13.07030857 -3 10 C-3.046875 8.02734375 -3.046875 8.02734375 -2.75 5.9375 C-2.66234375 5.24527344 -2.5746875 4.55304688 -2.484375 3.83984375 C-2 2 -2 2 0 0 Z " fill="#D2A33C" transform="translate(432,245)"/>
<path d="M0 0 C1.72670901 5.18012702 -1.05305686 10.09809651 -2.75 15.125 C-3.1109375 16.24777344 -3.471875 17.37054688 -3.84375 18.52734375 C-4.19953125 19.59339844 -4.5553125 20.65945312 -4.921875 21.7578125 C-5.24768555 22.7389502 -5.57349609 23.72008789 -5.90917969 24.73095703 C-6.26915039 25.47974121 -6.62912109 26.22852539 -7 27 C-7.99 27.33 -8.98 27.66 -10 28 C-9.49825923 21.42263461 -7.10790672 16.0453561 -4.4375 10.0625 C-4.01275391 9.09248047 -3.58800781 8.12246094 -3.15039062 7.12304688 C-2.10789047 4.74520943 -1.05762761 2.37113802 0 0 Z " fill="#152B28" transform="translate(437,195)"/>
<path d="M0 0 C0.33 0 0.66 0 1 0 C1.02705729 1.77074917 1.04642195 3.54161711 1.0625 5.3125 C1.07410156 6.29863281 1.08570313 7.28476562 1.09765625 8.30078125 C1 11 1 11 0 14 C-0.30486441 17.12486016 -0.50841216 20.25028111 -0.71875 23.3828125 C-1 26 -1 26 -2 27 C-2.39454223 28.84599688 -2.74176866 30.70225822 -3.0625 32.5625 C-3.23910156 33.57441406 -3.41570312 34.58632813 -3.59765625 35.62890625 C-3.73042969 36.41136719 -3.86320312 37.19382812 -4 38 C-4.33 38 -4.66 38 -5 38 C-4.49080682 25.1937914 -2.12198238 12.61539909 0 0 Z " fill="#61D5D8" transform="translate(392,349)"/>
<path d="M0 0 C0.66 0 1.32 0 2 0 C5.19234573 9.77655881 5.1636189 20.24550838 2 30 C1.67 30 1.34 30 1 30 C1.00523682 29.37544922 1.01047363 28.75089844 1.01586914 28.10742188 C1.03684076 25.23829176 1.04972376 22.36917785 1.0625 19.5 C1.07087891 18.51773437 1.07925781 17.53546875 1.08789062 16.5234375 C1.10659124 10.91325243 0.838879 5.54849101 0 0 Z " fill="#FEFADB" transform="translate(457,246)"/>
<path d="M0 0 C0.99 1.051875 0.99 1.051875 2 2.125 C5.34985941 5.49416695 9.15652564 8.22468725 13 11 C11.62890625 12.50390625 11.62890625 12.50390625 10 14 C7.9375 13.9375 7.9375 13.9375 6 13 C4.9375 11.125 4.9375 11.125 4 9 C3.484375 8.54625 2.96875 8.0925 2.4375 7.625 C0.37721065 5.29597725 0.3360683 3.02461466 0 0 Z " fill="#3FD4D8" transform="translate(509,335)"/>
<path d="M0 0 C-1.59090909 13.18181818 -1.59090909 13.18181818 -3 16 C-3.66 14.02 -4.32 12.04 -5 10 C-5.33 11.32 -5.66 12.64 -6 14 C-6.66 14 -7.32 14 -8 14 C-7.40523781 9.24190251 -5.5093872 5.05289706 -3 1 C-1 0 -1 0 0 0 Z " fill="#DEAB3C" transform="translate(415,244)"/>
<path d="M0 0 C0.66 0.33 1.32 0.66 2 1 C1.67 1.66 1.34 2.32 1 3 C1.66 3.33 2.32 3.66 3 4 C2.39009109 7.55780196 1.4216319 10.6828589 0 14 C-0.33 12.68 -0.66 11.36 -1 10 C-1.66 10 -2.32 10 -3 10 C-3 11.32 -3 12.64 -3 14 C-3.66 14 -4.32 14 -5 14 C-4.34580901 8.93001981 -2.1453591 4.58009223 0 0 Z " fill="#DEAA3B" transform="translate(402,267)"/>
<path d="M0 0 C2.4375 0.6875 2.4375 0.6875 5 2 C5.9921875 4.23046875 5.9921875 4.23046875 6 7 C4.27654794 9.14754759 2.71231361 10.81188277 0.6875 12.625 C-3.49403046 16.50412851 -3.49403046 16.50412851 -7 21 C-7.3125 18.78515625 -7.3125 18.78515625 -7 16 C-4.8125 13.68359375 -4.8125 13.68359375 -2 11.4375 C0.7893448 9.28582809 0.7893448 9.28582809 3 7 C3.43386092 3.12202338 3.43386092 3.12202338 1.5 1.25 C1.005 0.8375 0.51 0.425 0 0 Z " fill="#001C12" transform="translate(49,274)"/>
<path d="M0 0 C2.125 0.9375 2.125 0.9375 4 2 C2.68 2.33 1.36 2.66 0 3 C-0.66 7.95 -1.32 12.9 -2 18 C-2.99 18.33 -3.98 18.66 -5 19 C-5 15.35283197 -4.32151788 11.93795685 -3.625 8.375 C-3.49867188 7.68148438 -3.37234375 6.98796875 -3.2421875 6.2734375 C-2.89600948 4.50100603 -2.45466541 2.74775053 -2 1 C-1.34 0.67 -0.68 0.34 0 0 Z " fill="#17CA9E" transform="translate(237,376)"/>
<path d="M0 0 C0.33 0 0.66 0 1 0 C1.33 5.28 1.66 10.56 2 16 C2.33 16 2.66 16 3 16 C3 20.95 3 25.9 3 31 C2.67 31 2.34 31 2 31 C-0.62849569 20.76764179 -0.18464072 10.47323215 0 0 Z " fill="#12C097" transform="translate(76,255)"/>
<path d="M0 0 C3.00919458 1.54526208 3.96578457 3.11998151 5.3125 6.1875 C4.9825 6.8475 4.6525 7.5075 4.3125 8.1875 C1.3125 6.1875 1.3125 6.1875 0.3125 3.1875 C-2.30937494 4.23624998 -3.48121361 4.83681313 -4.9375 7.3125 C-5.185 7.93125 -5.4325 8.55 -5.6875 9.1875 C-6.0175 8.5275 -6.3475 7.8675 -6.6875 7.1875 C-7.3475 6.8575 -8.0075 6.5275 -8.6875 6.1875 C-3.68535131 0.25711753 -3.68535131 0.25711753 0 0 Z " fill="#10DAA9" transform="translate(165.6875,390.8125)"/>
<path d="M0 0 C1.67542976 0.28604898 3.34385343 0.61781233 5 1 C4.67 2.32 4.34 3.64 4 5 C3.01 5 2.02 5 1 5 C0.67 9.62 0.34 14.24 0 19 C-0.99 19 -1.98 19 -3 19 C-2.67 18.67 -2.34 18.34 -2 18 C-1.7889782 15.16292912 -1.62392187 12.34102354 -1.5 9.5 C-1.13513514 1.13513514 -1.13513514 1.13513514 0 0 Z " fill="#12D9A9" transform="translate(257,362)"/>
<path d="M0 0 C1.98 0 3.96 0 6 0 C5.34 2.64 4.68 5.28 4 8 C2.68 8.33 1.36 8.66 0 9 C0 6.03 0 3.06 0 0 Z " fill="#3DDADE" transform="translate(722,253)"/>
<path d="M0 0 C3.82946843 1.45255699 5.12050295 3.42895561 7 7 C6.01 7 5.02 7 4 7 C4 7.99 4 8.98 4 10 C3.34 10 2.68 10 2 10 C2.33 8.35 2.66 6.7 3 5 C-1.62 5 -6.24 5 -11 5 C-11 4.67 -11 4.34 -11 4 C-5.06 3.505 -5.06 3.505 1 3 C0.67 2.01 0.34 1.02 0 0 Z " fill="#BD9030" transform="translate(417,265)"/>
<path d="M0 0 C0.33 0 0.66 0 1 0 C0.67 6.93 0.34 13.86 0 21 C-0.99 21.33 -1.98 21.66 -3 22 C-2.69003741 19.27052356 -2.37712025 16.54144015 -2.0625 13.8125 C-1.97548828 13.04357422 -1.88847656 12.27464844 -1.79882812 11.48242188 C-1.35035579 7.61227172 -0.8470999 3.80813376 0 0 Z " fill="#BBFBF2" transform="translate(419,112)"/>
<path d="M0 0 C-0.99 2.97 -1.98 5.94 -3 9 C-3.33 9 -3.66 9 -4 9 C-4.33 7.35 -4.66 5.7 -5 4 C-10.28 3.67 -15.56 3.34 -21 3 C-21 2.67 -21 2.34 -21 2 C-19.19402344 1.90912109 -19.19402344 1.90912109 -17.3515625 1.81640625 C-15.77602923 1.73200268 -14.20050904 1.64735459 -12.625 1.5625 C-11.8309375 1.52318359 -11.036875 1.48386719 -10.21875 1.44335938 C-6.68012647 1.2484352 -3.35189233 0 0 0 Z " fill="#B88C2C" transform="translate(423,229)"/>
<path d="M0 0 C0.33 0 0.66 0 1 0 C0.48244596 8.44430279 -0.4560881 16.68086307 -2 25 C-2.33 25 -2.66 25 -3 25 C-3.02685938 22.85423363 -3.04633088 20.70837355 -3.0625 18.5625 C-3.07410156 17.36753906 -3.08570313 16.17257813 -3.09765625 14.94140625 C-3 12 -3 12 -2 11 C-1.79224439 9.33795513 -1.63281745 7.66970509 -1.5 6 C-1.11111111 1.11111111 -1.11111111 1.11111111 0 0 Z " fill="#25E2B5" transform="translate(414,139)"/>
<path d="M0 0 C2.12115604 3.41258542 2.12115604 3.41258542 1.58447266 6.01464844 C1.2807373 6.7059082 0.97700195 7.39716797 0.6640625 8.109375 C0.34179688 8.86347656 0.01953125 9.61757813 -0.3125 10.39453125 C-0.8384375 11.56048828 -0.8384375 11.56048828 -1.375 12.75 C-1.88933594 13.93916016 -1.88933594 13.93916016 -2.4140625 15.15234375 C-3.26214637 17.10764822 -4.12927477 19.05467242 -5 21 C-6.12018319 17.63945043 -5.90181274 16.98276729 -4.78515625 13.76953125 C-4.51123047 12.96708984 -4.23730469 12.16464844 -3.95507812 11.33789062 C-3.51325195 10.08782227 -3.51325195 10.08782227 -3.0625 8.8125 C-2.77181641 7.96751953 -2.48113281 7.12253906 -2.18164062 6.25195312 C-1.46242463 4.16504771 -0.7349657 2.08140006 0 0 Z " fill="#194C3D" transform="translate(382,307)"/>
<path d="M0 0 C-0.33 2.97 -0.66 5.94 -1 9 C-1.33 8.34 -1.66 7.68 -2 7 C-2.66 7 -3.32 7 -4 7 C-4 8.98 -4 10.96 -4 13 C-4.66 13 -5.32 13 -6 13 C-5.49540386 8.71093278 -4.94350927 4.88701855 -3 1 C-1 0 -1 0 0 0 Z " fill="#D9A83D" transform="translate(431,226)"/>
<path d="M0 0 C1.32 0.66 2.64 1.32 4 2 C4 2.99 4 3.98 4 5 C7.96 5.33 11.92 5.66 16 6 C16 6.33 16 6.66 16 7 C13.54137599 7.05383848 11.0839245 7.09359038 8.625 7.125 C7.57699219 7.15013672 7.57699219 7.15013672 6.5078125 7.17578125 C4.67102514 7.19344267 2.83398037 7.10303261 1 7 C0.34 6.34 -0.32 5.68 -1 5 C-0.625 2.375 -0.625 2.375 0 0 Z " fill="#C89320" transform="translate(369,225)"/>
<path d="M0 0 C1.65 0.99 3.3 1.98 5 3 C4.01 3.495 4.01 3.495 3 4 C2.34444881 6.52733235 2.34444881 6.52733235 2 9 C0.68 8.34 -0.64 7.68 -2 7 C-1.125 1.125 -1.125 1.125 0 0 Z " fill="#EDF1EC" transform="translate(434,209)"/>
<path d="M0 0 C4.31255674 -0.42279968 6.37309762 -0.43099539 10 2.0625 C12 5 12 5 11.8125 8.8125 C11.544375 9.864375 11.27625 10.91625 11 12 C10.67 12 10.34 12 10 12 C9.67 9.36 9.34 6.72 9 4 C7.68 4.33 6.36 4.66 5 5 C4.67 4.34 4.34 3.68 4 3 C4.33 2.34 4.66 1.68 5 1 C3.35 1 1.7 1 0 1 C0 0.67 0 0.34 0 0 Z " fill="#0FD0A0" transform="translate(173,153)"/>
<path d="M0 0 C3.3 0.33 6.6 0.66 10 1 C4.62958281 5.62452592 4.62958281 5.62452592 1 6 C0.34 5.67 -0.32 5.34 -1 5 C-0.67 3.35 -0.34 1.7 0 0 Z " fill="#3FD1D6" transform="translate(578,146)"/>
<path d="M0 0 C0.33 0 0.66 0 1 0 C1.04254356 1.99954746 1.04080783 4.00041636 1 6 C0.67 6.33 0.34 6.66 0 7 C-0.53690911 10.35680989 -0.96627385 13.72245328 -1.40234375 17.09375 C-1.59957031 18.0528125 -1.79679687 19.011875 -2 20 C-2.66 20.33 -3.32 20.66 -4 21 C-3.71681868 18.4363053 -3.42377507 15.87438474 -3.125 13.3125 C-3.04636719 12.59126953 -2.96773438 11.87003906 -2.88671875 11.12695312 C-2.4103949 7.11484068 -1.73699858 3.70024488 0 0 Z " fill="#CAFEF8" transform="translate(410,181)"/>
<path d="M0 0 C1.26403575 3.59566927 0.73990566 6.05299344 -0.25 9.6875 C-0.62898438 11.14736328 -0.62898438 11.14736328 -1.015625 12.63671875 C-1.34046875 13.41660156 -1.6653125 14.19648438 -2 15 C-2.99 15.33 -3.98 15.66 -5 16 C-4.34309381 12.21760329 -3.279869 8.78158474 -1.9375 5.1875 C-1.57527344 4.21167969 -1.21304687 3.23585937 -0.83984375 2.23046875 C-0.42412109 1.12638672 -0.42412109 1.12638672 0 0 Z " fill="#442A07" transform="translate(435,219)"/>
<path d="M0 0 C0 3 0 3 -1.875 5.625 C-6.11425805 8.84683612 -9.79641261 8.88885541 -15 9 C-11.26644204 6.51096136 -7.34976398 4.46070009 -3.3984375 2.33984375 C-1.11800144 1.20882243 -1.11800144 1.20882243 0 0 Z " fill="#54DBDE" transform="translate(441,310)"/>
<path d="M0 0 C0.66 0 1.32 0 2 0 C0.13236819 5.72210596 -1.85289032 11.37661751 -4 17 C-5.30457818 13.08626547 -4.37656943 11.2678125 -3.125 7.375 C-2.75632812 6.20710938 -2.38765625 5.03921875 -2.0078125 3.8359375 C-1 1 -1 1 0 0 Z " fill="#4A2D05" transform="translate(383,289)"/>
<path d="M0 0 C1.65 0.33 3.3 0.66 5 1 C4.38125 1.2475 3.7625 1.495 3.125 1.75 C0.64931313 3.20628639 0.04874998 4.37812506 -1 7 C-1.66 7 -2.32 7 -3 7 C-3 7.66 -3 8.32 -3 9 C-3.66 8.67 -4.32 8.34 -5 8 C-3.35 5.36 -1.7 2.72 0 0 Z " fill="#11DEAC" transform="translate(188,391)"/>
<path d="M0 0 C0.99 0 1.98 0 3 0 C3 0.66 3 1.32 3 2 C5.97 2 8.94 2 12 2 C12 2.33 12 2.66 12 3 C8.7 3 5.4 3 2 3 C2 5.31 2 7.62 2 10 C1.34 10 0.68 10 0 10 C-0.19412181 8.52168779 -0.38012131 7.04230684 -0.5625 5.5625 C-0.66691406 4.73878906 -0.77132812 3.91507813 -0.87890625 3.06640625 C-0.91886719 2.38449219 -0.95882812 1.70257813 -1 1 C-0.67 0.67 -0.34 0.34 0 0 Z " fill="#0AD6A5" transform="translate(61,185)"/>
<path d="M0 0 C0.66 0 1.32 0 2 0 C2 0.66 2 1.32 2 2 C1.34 2 0.68 2 0 2 C0 3.32 0 4.64 0 6 C0.66 6.33 1.32 6.66 2 7 C1.34 7 0.68 7 0 7 C0 8.65 0 10.3 0 12 C-2.20844555 10.25164727 -2.93950114 9.39324258 -3.375 6.5625 C-2.93465977 3.55350842 -2.09572931 2.17633428 0 0 Z " fill="#12C99C" transform="translate(171,154)"/>
<path d="M0 0 C0.33 0 0.66 0 1 0 C1.3689719 7.31110994 0.81552726 13.21256822 -2 20 C-3.31052767 15.69577494 -2.45785552 12.0629466 -1.5625 7.75 C-1.41490234 7.00492187 -1.26730469 6.25984375 -1.11523438 5.4921875 C-0.7511306 3.65992335 -0.37658591 1.82973947 0 0 Z " fill="#C6FDF7" transform="translate(436,0)"/>
<path d="M0 0 C0.556875 0.226875 1.11375 0.45375 1.6875 0.6875 C0.0375 1.3475 -1.6125 2.0075 -3.3125 2.6875 C-2.9825 3.6775 -2.6525 4.6675 -2.3125 5.6875 C-5.3125 5.6875 -8.3125 5.6875 -11.3125 5.6875 C-3.40789474 -0.46052632 -3.40789474 -0.46052632 0 0 Z " fill="#40CCD1" transform="translate(718.3125,358.3125)"/>
<path d="M0 0 C0.93065133 2.60582371 1.14917407 3.64198224 0.0625 6.25 C-0.4634375 7.11625 -0.4634375 7.11625 -1 8 C-0.34 8 0.32 8 1 8 C0.67 9.32 0.34 10.64 0 12 C-1.32 11.67 -2.64 11.34 -4 11 C-3.52269162 9.5410574 -3.04308958 8.08286504 -2.5625 6.625 C-2.29566406 5.81289063 -2.02882813 5.00078125 -1.75390625 4.1640625 C-1 2 -1 2 0 0 Z " fill="#E0AD42" transform="translate(388,300)"/>
<path d="M0 0 C0.33 0.99 0.66 1.98 1 3 C3.01508358 3.73323796 3.01508358 3.73323796 5 4 C4 6 4 6 2.25 6.75 C-0.64430225 7.07158914 -2.40065973 6.22746624 -5 5 C-3.35 3.35 -1.7 1.7 0 0 Z " fill="#E5AC2E" transform="translate(436,285)"/>
<path d="M0 0 C0.33 0 0.66 0 1 0 C1.08097324 2.27024968 1.13917704 4.54132075 1.1875 6.8125 C1.22230469 8.07707031 1.25710938 9.34164062 1.29296875 10.64453125 C1 14 1 14 -2 17 C-1.34 11.39 -0.68 5.78 0 0 Z " fill="#64D7DB" transform="translate(424,133)"/>
<path d="M0 0 C1.62586597 3.25173194 2.90715399 6.34003119 4.125 9.75 C4.47820312 10.73484375 4.83140625 11.7196875 5.1953125 12.734375 C5.46085938 13.48203125 5.72640625 14.2296875 6 15 C5.34 15 4.68 15 4 15 C4 14.34 4 13.68 4 13 C3.34 13 2.68 13 2 13 C2 11.68 2 10.36 2 9 C1.34 9 0.68 9 0 9 C0 6.03 0 3.06 0 0 Z " fill="#19CAA0" transform="translate(199,303)"/>
<path d="M0 0 C0.33 0 0.66 0 1 0 C1.99 5.28 2.98 10.56 4 16 C3.01 16.66 2.02 17.32 1 18 C0.67 12.06 0.34 6.12 0 0 Z " fill="#19C89E" transform="translate(78,170)"/>
<path d="M0 0 C0.99 0 1.98 0 3 0 C3 2.97 3 5.94 3 9 C2.34 9 1.68 9 1 9 C-0.61949011 6.42786866 -1.04408751 5.32330841 -0.625 2.25 C-0.41875 1.5075 -0.2125 0.765 0 0 Z " fill="#032224" transform="translate(708,262)"/>
<path d="M0 0 C-2.89066059 9.59453303 -2.89066059 9.59453303 -6 13 C-5.39009109 9.44219804 -4.4216319 6.3171411 -3 3 C-3.66 3 -4.32 3 -5 3 C-5 2.34 -5 1.68 -5 1 C-2 0 -2 0 0 0 Z " fill="#191305" transform="translate(413,242)"/>
<path d="M0 0 C0.66 0 1.32 0 2 0 C2.10832169 2.08218362 2.18573541 4.16599129 2.25 6.25 C2.29640625 7.41015625 2.3428125 8.5703125 2.390625 9.765625 C1.93035506 13.57666013 0.94851556 14.65511755 -2 17 C-1.855625 16.443125 -1.71125 15.88625 -1.5625 15.3125 C-0.28453328 10.05863683 0.19646963 5.40291471 0 0 Z " fill="#19CCA2" transform="translate(275,168)"/>
<path d="M0 0 C0.99 0 1.98 0 3 0 C2.43393721 4.69023454 1.81462495 9.34500026 1 14 C0.67 14 0.34 14 0 14 C0 9.38 0 4.76 0 0 Z " fill="#2EE5BB" transform="translate(433,2)"/>
<path d="M0 0 C0.33 0.66 0.66 1.32 1 2 C-1.57404971 5.86107457 -3.61020259 5.94319692 -8 7 C-6.5361389 2.60841671 -4.02168662 2.12052567 0 0 Z " fill="#3DCDCF" transform="translate(664,388)"/>
<path d="M0 0 C0.66 0.33 1.32 0.66 2 1 C-1.3 4.3 -4.6 7.6 -8 11 C-8.66 10.67 -9.32 10.34 -10 10 C-6.92118304 6.12948725 -3.99926986 2.97088618 0 0 Z " fill="#051D1D" transform="translate(602,229)"/>
<path d="M0 0 C0.33 1.32 0.66 2.64 1 4 C0.34 4 -0.32 4 -1 4 C-1.12375 4.78375 -1.2475 5.5675 -1.375 6.375 C-2 9 -2 9 -4 11 C-4.99 10.67 -5.98 10.34 -7 10 C-6.401875 9.278125 -5.80375 8.55625 -5.1875 7.8125 C-3.22577804 5.29028605 -1.58276017 2.7698303 0 0 Z " fill="#FEF5D4" transform="translate(452,287)"/>
<path d="M0 0 C0.33 0 0.66 0 1 0 C1.33102914 3.6413205 1.42019439 5.41472925 -0.75 8.4375 C-3 10 -3 10 -5.25 9.75 C-6.11625 9.37875 -6.11625 9.37875 -7 9 C-6.01 9 -5.02 9 -4 9 C-4 8.34 -4 7.68 -4 7 C-3.34 7 -2.68 7 -2 7 C-2 6.34 -2 5.68 -2 5 C-2.66 4.67 -3.32 4.34 -4 4 C-2.68 4 -1.36 4 0 4 C0 2.68 0 1.36 0 0 Z " fill="#11D4A4" transform="translate(245,349)"/>
<path d="M0 0 C2 1 2 1 3.125 2.9375 C4.37069969 7.29744893 4.15742081 11.49601581 4 16 C3.67 16 3.34 16 3 16 C2.01 10.72 1.02 5.44 0 0 Z " fill="#18C79E" transform="translate(131,340)"/>
<path d="M0 0 C0.66 1.32 1.32 2.64 2 4 C-0.31 4 -2.62 4 -5 4 C-5 3.34 -5 2.68 -5 2 C-5.66 1.67 -6.32 1.34 -7 1 C-4.50935112 0.31292445 -2.62113708 0 0 0 Z " fill="#F5B328" transform="translate(417,265)"/>
<path d="M0 0 C2 3 2 3 2 5 C1.67 5.33 1.34 5.66 1 6 C1.99 6.33 2.98 6.66 4 7 C3.01 8.485 3.01 8.485 2 10 C1.01 10 0.02 10 -1 10 C-0.67 6.7 -0.34 3.4 0 0 Z " fill="#151209" transform="translate(435,245)"/>
<path d="M0 0 C0.99 0 1.98 0 3 0 C2.67 1.98 2.34 3.96 2 6 C1.01 6.33 0.02 6.66 -1 7 C-1.04254356 5.00045254 -1.04080783 2.99958364 -1 1 C-0.67 0.67 -0.34 0.34 0 0 Z " fill="#E9B038" transform="translate(432,245)"/>
<path d="M0 0 C0.33 0.66 0.66 1.32 1 2 C-0.32 3.32 -1.64 4.64 -3 6 C-4.32 5.34 -5.64 4.68 -7 4 C-4.69 2.68 -2.38 1.36 0 0 Z M-5 6 C-3 7 -3 7 -3 7 Z " fill="#3FCAD0" transform="translate(697,369)"/>
<path d="M0 0 C0.33 0 0.66 0 1 0 C1 3.3 1 6.6 1 10 C0.01 9.01 -0.98 8.02 -2 7 C-1.56521739 1.56521739 -1.56521739 1.56521739 0 0 Z " fill="#281F08" transform="translate(414,251)"/>
<path d="M0 0 C0.99 0 1.98 0 3 0 C3.125 2.875 3.125 2.875 3 6 C2.34 6.66 1.68 7.32 1 8 C0.67 7.34 0.34 6.68 0 6 C-0.66 5.67 -1.32 5.34 -2 5 C-1.34 3.35 -0.68 1.7 0 0 Z " fill="#2A1D06" transform="translate(426,221)"/>
<path d="M0 0 C-0.66 1.32 -1.32 2.64 -2 4 C-4.4375 3.625 -4.4375 3.625 -7 3 C-7.33 2.34 -7.66 1.68 -8 1 C-5.07175348 0.02391783 -3.04386724 -0.08226668 0 0 Z " fill="#0FD2A2" transform="translate(169,138)"/>
<path d="M0 0 C2.64752004 2.57784846 4.94432065 4.91648098 7 8 C5.35 8 3.7 8 2 8 C0 2.25 0 2.25 0 0 Z " fill="#46C8CF" transform="translate(509,335)"/>
<path d="M0 0 C-1.39332574 3.36720387 -2.9789286 4.9859524 -6 7 C-6 5.35 -6 3.7 -6 2 C-2.25 0 -2.25 0 0 0 Z " fill="#EEB53A" transform="translate(449,292)"/>
<path d="M0 0 C0.33 0 0.66 0 1 0 C1.33 2.64 1.66 5.28 2 8 C0.35 8.33 -1.3 8.66 -3 9 C-2.01 6.03 -1.02 3.06 0 0 Z " fill="#E3AD38" transform="translate(396,281)"/>
<path d="M0 0 C0.66 0 1.32 0 2 0 C1.46930939 3.82097239 0.50298434 6.06171403 -2 9 C-2.125 5.625 -2.125 5.625 -2 2 C-1.34 1.34 -0.68 0.68 0 0 Z " fill="#171007" transform="translate(415,232)"/>
<path d="M0 0 C0.33 0.66 0.66 1.32 1 2 C-0.75 4 -0.75 4 -3 6 C-4.32 6 -5.64 6 -7 6 C-5.9024777 3.00675737 -5.32317108 2.15389099 -2.375 0.75 C-1.59125 0.5025 -0.8075 0.255 0 0 Z " fill="#09E4B1" transform="translate(111,191)"/>
<path d="M0 0 C2.125 0.9375 2.125 0.9375 4 2 C2.68 2.33 1.36 2.66 0 3 C-0.33 4.32 -0.66 5.64 -1 7 C-1.33 7 -1.66 7 -2 7 C-2 5.02 -2 3.04 -2 1 C-1.34 0.67 -0.68 0.34 0 0 Z " fill="#12DCAC" transform="translate(237,376)"/>
<path d="M0 0 C1.32 0.66 2.64 1.32 4 2 C3.01 2.33 2.02 2.66 1 3 C0.67 3.99 0.34 4.98 0 6 C-0.66 6 -1.32 6 -2 6 C-2 6.99 -2 7.98 -2 9 C-2.66 9 -3.32 9 -4 9 C-2.80100302 5.9168649 -1.52299523 2.93720508 0 0 Z " fill="#46BDC2" transform="translate(659,283)"/>
<path d="M0 0 C1.2077558 3.62326739 0.54311128 4.64146369 -1 8 C-1.66 8 -2.32 8 -3 8 C-3.1875 5.125 -3.1875 5.125 -3 2 C-2.01 1.34 -1.02 0.68 0 0 Z " fill="#0D0C0A" transform="translate(426,226)"/>
<path d="M0 0 C0.66 0.33 1.32 0.66 2 1 C1.79375 1.78375 1.5875 2.5675 1.375 3.375 C1.25125 4.24125 1.1275 5.1075 1 6 C1.66 6.66 2.32 7.32 3 8 C1.35 8 -0.3 8 -2 8 C-1.125 2.25 -1.125 2.25 0 0 Z " fill="#DAA73A" transform="translate(418,276)"/>
<path d="M0 0 C0.33 0 0.66 0 1 0 C1 1.98 1 3.96 1 6 C1.66 6 2.32 6 3 6 C2.01 9.465 2.01 9.465 1 13 C0.67 13 0.34 13 0 13 C0 8.71 0 4.42 0 0 Z " fill="#D8AC4C" transform="translate(386,255)"/>
<path d="M0 0 C0.33 0.66 0.66 1.32 1 2 C1.66 2.33 2.32 2.66 3 3 C2.67 3.66 2.34 4.32 2 5 C-0.32156597 5.40729228 -2.6568787 5.74438677 -5 6 C-3.35 4.02 -1.7 2.04 0 0 Z " fill="#EFB63A" transform="translate(368,225)"/>
<path d="M0 0 C2.625 0.375 2.625 0.375 5 1 C4.67 2.32 4.34 3.64 4 5 C2.02 4.01 0.04 3.02 -2 2 C-1.34 1.34 -0.68 0.68 0 0 Z " fill="#3FCDD1" transform="translate(673,146)"/>
<path d="M0 0 C0.66 0 1.32 0 2 0 C1.40138258 2.35171131 0.73075648 4.6859378 0 7 C-0.99 7.495 -0.99 7.495 -2 8 C-2.125 5.125 -2.125 5.125 -2 2 C-1.34 1.34 -0.68 0.68 0 0 Z " fill="#231501" transform="translate(385,302)"/>
<path d="M0 0 C2.475 0.495 2.475 0.495 5 1 C4.67 2.32 4.34 3.64 4 5 C3.01 4.67 2.02 4.34 1 4 C0.3125 1.9375 0.3125 1.9375 0 0 Z " fill="#47D0D6" transform="translate(657,242)"/>
<path d="M0 0 C0.33 0.66 0.66 1.32 1 2 C0.34 2 -0.32 2 -1 2 C-1.12375 2.639375 -1.2475 3.27875 -1.375 3.9375 C-1.58125 4.618125 -1.7875 5.29875 -2 6 C-2.99 6.495 -2.99 6.495 -4 7 C-4.66 6.34 -5.32 5.68 -6 5 C-4.02 3.35 -2.04 1.7 0 0 Z " fill="#3CB9BD" transform="translate(572,205)"/>
<path d="M0 0 C0.99 0 1.98 0 3 0 C3 1.32 3 2.64 3 4 C1.68 4.33 0.36 4.66 -1 5 C-0.67 3.35 -0.34 1.7 0 0 Z " fill="#EAB134" transform="translate(381,300)"/>
<path d="M0 0 C0 0.66 0 1.32 0 2 C-3.98196457 3.05404945 -6.98195309 2.84098656 -11 2 C-11 1.67 -11 1.34 -11 1 C-7.26562152 0.12132271 -3.83225427 -0.08912219 0 0 Z " fill="#2FABAE" transform="translate(615,187)"/>
</svg>
